<svg width="642" height="666" viewBox="0 0 642 666" fill="none" xmlns="http://www.w3.org/2000/svg">
<path opacity="0.4" d="M327.805 623.243C474.272 623.243 593.006 606.545 593.006 585.947C593.006 565.349 474.272 548.651 327.805 548.651C181.339 548.651 62.604 565.349 62.604 585.947C62.604 606.545 181.339 623.243 327.805 623.243Z" fill="black"/>
<path d="M193.806 275.724C193.806 275.724 209.657 194.872 180.353 142.924C153.58 95.5048 108.025 87.646 108.025 87.646C108.025 87.646 82.1844 189.278 193.806 275.724Z" fill="#92EC5F"/>
<path d="M208.858 271.329C208.858 271.329 104.962 271.196 77.7888 187.679C77.7888 187.679 173.959 179.82 208.858 271.329Z" fill="#FFA31D"/>
<path d="M414.652 307.026C414.652 307.026 440.093 152.248 538.261 150.916C538.261 151.049 579.686 259.341 414.652 307.026Z" fill="#92EC5F"/>
<path d="M601.664 332.601C601.664 332.601 528.538 280.786 462.204 331.402C462.204 331.402 521.611 385.881 601.664 332.601Z" fill="#92EC5F"/>
<path d="M609.39 212.721C609.39 212.721 475.924 200.733 421.578 325.275C421.445 325.275 575.824 351.915 609.39 212.721Z" fill="#FFA31D"/>
<path d="M608.646 211.709L420.761 324.2L422.129 326.485L610.015 213.995L608.646 211.709Z" fill="white"/>
<path d="M537.219 150.234L413.577 306.335L415.665 307.989L539.308 151.888L537.219 150.234Z" fill="white"/>
<path d="M458.212 330.03L458.191 332.694L610.971 333.9L610.992 331.236L458.212 330.03Z" fill="white"/>
<path d="M579.786 193.869L560.145 241.387L562.607 242.404L582.248 194.886L579.786 193.869Z" fill="white"/>
<path d="M551.57 203.801L539.974 253.206L542.567 253.814L554.163 204.41L551.57 203.801Z" fill="white"/>
<path d="M549.614 330.962L548.126 333.172L580.504 354.965L581.991 352.755L549.614 330.962Z" fill="white"/>
<path d="M556.56 180.315L506.83 188.993L507.288 191.617L557.018 182.939L556.56 180.315Z" fill="white"/>
<path d="M522.223 263.846L521.592 266.434L585 281.902L585.631 279.314L522.223 263.846Z" fill="white"/>
<path d="M109.204 86.932L106.78 88.0376L192.571 276.117L194.995 275.012L109.204 86.932Z" fill="white"/>
<path d="M78.4926 186.533L77.0596 188.779L208.099 272.392L209.532 270.147L78.4926 186.533Z" fill="white"/>
<path d="M149.503 90.9535L134.703 148.759L137.284 149.42L152.083 91.6141L149.503 90.9535Z" fill="white"/>
<path d="M172.422 105.516L147.025 175.367L149.529 176.277L174.926 106.426L172.422 105.516Z" fill="white"/>
<path d="M141.725 163.703C124.276 157.043 95.5044 146.52 92.8404 146.52C92.8404 146.52 92.8404 146.52 92.9736 146.52L92.3076 143.99C94.8384 143.324 124.942 154.646 142.657 161.306L141.725 163.703Z" fill="white"/>
<path d="M119.883 213.557L86.8936 225.345L87.79 227.853L120.779 216.065L119.883 213.557Z" fill="white"/>
<path d="M141.436 227.693L103.146 249.284L104.455 251.604L142.745 230.013L141.436 227.693Z" fill="white"/>
<path d="M334.598 531.868C448.697 531.868 541.192 439.373 541.192 325.274C541.192 211.176 448.697 118.681 334.598 118.681C220.5 118.681 128.005 211.176 128.005 325.274C128.005 439.373 220.5 531.868 334.598 531.868Z" fill="#64CDD0"/>
<mask id="mask0_60_7" style="mask-type:luminance" maskUnits="userSpaceOnUse" x="128" y="118" width="414" height="414">
<path d="M334.598 531.868C448.697 531.868 541.192 439.373 541.192 325.274C541.192 211.176 448.697 118.681 334.598 118.681C220.5 118.681 128.005 211.176 128.005 325.274C128.005 439.373 220.5 531.868 334.598 531.868Z" fill="white"/>
</mask>
<g mask="url(#mask0_60_7)">
<path d="M487.645 161.039C487.645 161.039 478.188 203.663 444.089 219.38C390.01 244.289 386.946 207.792 359.374 213.653C331.801 219.514 283.316 176.623 285.581 118.415L394.272 70.3296L487.645 161.039Z" fill="#30C689"/>
</g>
<mask id="mask1_60_7" style="mask-type:luminance" maskUnits="userSpaceOnUse" x="128" y="118" width="414" height="414">
<path d="M334.598 531.868C448.697 531.868 541.192 439.373 541.192 325.274C541.192 211.176 448.697 118.681 334.598 118.681C220.5 118.681 128.005 211.176 128.005 325.274C128.005 439.373 220.5 531.868 334.598 531.868Z" fill="white"/>
</mask>
<g mask="url(#mask1_60_7)">
<path d="M329.004 547.452C329.004 547.452 368.831 541.857 339.394 474.725C309.956 407.592 252.414 426.107 229.504 413.719C181.818 387.878 212.72 314.085 143.989 227.106L78.7212 345.254L135.997 480.186L241.492 554.778L329.004 547.452Z" fill="#30C689"/>
</g>
<path opacity="0.5" d="M482.45 180.886C504.828 213.919 517.882 253.746 517.882 296.503C517.882 410.656 425.308 503.097 311.288 503.097C253.346 503.097 200.999 479.254 163.436 440.892C200.599 495.771 263.47 531.868 334.732 531.868C448.884 531.868 541.325 439.294 541.325 325.275C541.325 269.064 518.814 218.182 482.45 180.886Z" fill="black"/>
<path d="M421.178 261.072H240.16C230.969 261.072 223.909 252.814 225.374 243.756L234.698 185.681C235.897 178.488 242.158 173.16 249.484 173.16H411.854C419.18 173.16 425.441 178.488 426.64 185.681L435.964 243.756C437.296 252.947 430.369 261.072 421.178 261.072Z" fill="#148C90"/>
<path d="M413.053 561.971H248.285C236.563 561.971 226.84 552.647 226.44 540.925L215.384 273.193C214.852 260.806 224.842 250.416 237.229 250.416H424.109C436.496 250.416 446.486 260.806 445.954 273.193L434.898 540.925C434.365 552.78 424.775 561.971 413.053 561.971Z" fill="#148C90"/>
<path d="M392.274 561.971V505.494C392.274 497.102 385.481 490.442 377.222 490.442H284.249C275.857 490.442 269.197 497.236 269.197 505.494V561.971H392.274Z" fill="#005647"/>
<path d="M449.816 241.892H211.388C205.528 241.892 200.866 246.554 200.866 252.414V276.257C200.866 282.118 205.528 286.78 211.388 286.78H260.939L265.734 315.418H273.593L278.388 286.78H292.108L296.903 315.418H304.762L309.557 286.78H323.276L328.072 315.418H335.93L340.726 286.78H354.445L359.24 315.418H367.099L371.894 286.78H385.614L390.409 315.418H398.268L403.063 286.78H449.95C455.81 286.78 460.472 282.118 460.472 276.257V252.414C460.472 246.687 455.677 241.892 449.816 241.892Z" fill="#005B4C"/>
<path d="M460.472 261.072H200.866V268.398H460.472V261.072Z" fill="#FFA31D"/>
<path d="M333.266 367.765L340.859 380.819L334.865 385.881H361.238L374.159 360.173L366.3 364.435C366.3 364.435 362.038 359.507 358.042 352.847C354.046 346.32 346.453 345.255 333.266 345.921C320.08 346.587 311.155 348.185 305.561 358.708C299.966 369.364 296.636 377.489 296.636 377.489L321.012 389.344L333.266 367.765Z" fill="#98E3E1"/>
<path d="M362.837 421.045H347.785L346.32 413.32L333 436.097L348.718 460.206L348.984 451.148C348.984 451.148 355.378 449.95 363.103 449.95C370.829 449.816 375.491 443.822 381.618 432.101C387.745 420.379 390.942 411.854 384.548 401.731C378.288 391.608 372.827 384.548 372.827 384.548L350.183 399.6L362.837 421.045Z" fill="#98E3E1"/>
<path d="M302.231 421.845L310.356 409.191L317.549 412.121L305.428 388.678L276.656 389.077L284.116 394.139C284.116 394.139 281.718 400.266 277.589 406.793C273.46 413.32 276.124 420.513 282.784 431.968C289.444 443.423 294.905 450.616 306.893 450.749C318.881 450.882 327.672 450.083 327.672 450.083L327.006 422.91L302.231 421.845Z" fill="#98E3E1"/>
<path d="M396.403 232.301H264.802C259.074 232.301 254.412 227.639 254.412 221.912V197.403C254.412 191.675 259.074 187.013 264.802 187.013H396.403C402.131 187.013 406.793 191.675 406.793 197.403V221.912C406.66 227.639 402.131 232.301 396.403 232.301Z" fill="#005647"/>
<path opacity="0.5" d="M241.758 532.934C240.426 530.27 239.627 527.339 239.494 524.276L238.828 508.824C238.694 506.427 238.694 504.962 238.694 504.962L229.637 286.913H215.784L226.307 541.059C226.84 552.78 236.43 562.104 248.152 562.104H251.881C246.82 554.245 243.623 543.19 241.758 532.934Z" fill="black"/>
<path opacity="0.5" d="M386.546 292.774L385.481 286.78H371.761L370.829 292.774H386.546Z" fill="black"/>
<path opacity="0.5" d="M376.69 442.357C376.69 443.023 376.823 443.689 377.089 444.355L380.686 467.932C380.686 468.065 380.686 468.065 380.686 468.198C380.686 468.731 380.819 469.264 380.952 469.797L392.54 544.655C392.54 544.788 392.54 545.054 392.54 545.188C392.54 545.854 392.674 546.52 392.94 547.186L395.338 562.237C398.668 562.371 401.731 562.371 404.795 562.371L402.797 549.717H432.9C433.832 547.186 434.498 544.388 434.898 540.792C434.898 540.659 434.898 540.526 434.898 540.393H401.465L398.934 524.009H435.83C435.964 521.212 436.097 518.015 436.23 514.685H397.336L394.805 498.301H436.896C437.029 495.238 437.162 492.174 437.296 488.977H393.34L390.809 472.594H437.962C438.095 469.53 438.228 466.466 438.361 463.27H389.344L386.813 446.886H439.027C439.16 443.822 439.294 440.626 439.427 437.562H385.348L382.817 421.179H440.093C440.892 400.133 441.691 380.153 442.224 364.569L430.103 286.646H402.797L401.731 292.64H421.578L424.109 309.024H399.067L398.002 315.284H390.276L389.21 309.024H367.898L366.833 315.284H358.974L354.179 286.646H352.447L356.576 313.153C356.576 313.286 356.576 313.553 356.576 313.686C356.576 314.352 356.71 315.018 356.976 315.684L364.568 364.569C364.568 364.702 364.568 364.968 364.568 365.101C364.568 365.767 364.702 366.433 364.968 367.099L376.556 441.691C376.69 441.958 376.69 442.224 376.69 442.357ZM440.226 411.988H381.485L378.821 395.071L437.296 393.873L440.226 411.988ZM366.966 318.481H425.707L428.238 334.865H369.497L366.966 318.481ZM370.962 344.189H429.703L432.234 360.573H373.493L370.962 344.189ZM374.958 369.897H433.699L435.964 384.415L377.489 385.614L374.958 369.897Z" fill="black"/>
<path opacity="0.5" d="M378.688 242.424H398.668C398.668 242.291 398.668 242.158 398.801 242.025C400.399 235.764 401.332 229.903 402.131 224.309C402.797 225.774 403.463 226.973 403.996 227.905C405.994 230.703 409.19 236.297 412.121 242.424H432.234C429.037 233.1 421.844 224.709 419.047 218.715C416.383 212.854 415.984 191.275 412.654 179.154C412.787 178.888 412.92 178.488 412.92 178.222C413.32 176.623 413.719 175.025 413.719 173.293H381.485C380.552 184.083 379.354 197.136 379.753 208.591C380.153 218.581 379.22 230.703 378.688 242.424Z" fill="black"/>
<path d="M432.5 268.398H367.232C364.702 268.398 362.704 266.267 362.704 263.736C362.704 261.205 364.702 259.074 367.232 259.074H432.5C435.031 259.074 437.029 261.205 437.029 263.736C437.029 266.267 435.031 268.398 432.5 268.398Z" fill="#C5E4E4"/>
<path d="M438.894 292.774H371.495C368.964 292.774 366.833 290.643 366.833 288.112C366.833 285.581 368.964 283.45 371.495 283.45H438.894C441.425 283.45 443.556 285.581 443.556 288.112C443.556 290.643 441.425 292.774 438.894 292.774Z" fill="#C5E4E4"/>
<path d="M441.425 318.481H374.558C372.028 318.481 369.896 316.35 369.896 313.819C369.896 311.288 372.028 309.157 374.558 309.157H441.425C443.956 309.157 446.087 311.288 446.087 313.819C446.087 316.35 443.956 318.481 441.425 318.481Z" fill="#C5E4E4"/>
<path d="M446.62 344.189H379.22C376.69 344.189 374.558 342.058 374.558 339.527C374.558 336.996 376.69 334.865 379.22 334.865H446.62C449.15 334.865 451.282 336.996 451.282 339.527C451.282 342.058 449.15 344.189 446.62 344.189Z" fill="#C5E4E4"/>
<path d="M450.749 369.897H382.55C380.02 369.897 377.888 367.766 377.888 365.235C377.888 362.704 380.02 360.573 382.55 360.573H450.749C453.28 360.573 455.411 362.704 455.411 365.235C455.411 367.766 453.413 369.897 450.749 369.897Z" fill="#C5E4E4"/>
<path d="M388.012 395.205C385.481 395.205 383.35 393.207 383.35 390.676C383.35 388.145 385.348 386.014 387.878 385.881L454.345 384.416C457.009 384.282 459.007 386.414 459.14 388.944C459.14 391.475 457.142 393.606 454.612 393.74L388.012 395.205Z" fill="#C5E4E4"/>
<path d="M458.741 421.312H392.141C389.61 421.312 387.479 419.181 387.479 416.65C387.479 414.119 389.61 411.988 392.141 411.988H458.741C461.272 411.988 463.403 414.119 463.403 416.65C463.403 419.181 461.405 421.312 458.741 421.312Z" fill="#C5E4E4"/>
<path d="M462.737 447.019H394.538C392.008 447.019 389.876 444.888 389.876 442.357C389.876 439.827 392.008 437.695 394.538 437.695H462.737C465.268 437.695 467.399 439.827 467.399 442.357C467.399 444.888 465.401 447.019 462.737 447.019Z" fill="#C5E4E4"/>
<path d="M466.733 472.727H398.668C396.137 472.727 394.006 470.596 394.006 468.065C394.006 465.534 396.137 463.403 398.668 463.403H466.733C469.264 463.403 471.395 465.534 471.395 468.065C471.395 470.596 469.397 472.727 466.733 472.727Z" fill="#C5E4E4"/>
<path d="M470.729 498.435H402.93C400.399 498.435 398.268 496.304 398.268 493.773C398.268 491.242 400.399 489.111 402.93 489.111H470.729C473.26 489.111 475.391 491.242 475.391 493.773C475.391 496.304 473.393 498.435 470.729 498.435Z" fill="#C5E4E4"/>
<path d="M474.458 524.142H407.592C405.061 524.142 402.93 522.011 402.93 519.48C402.93 516.95 405.061 514.818 407.592 514.818H474.458C476.989 514.818 479.12 516.95 479.12 519.48C479.12 522.011 476.989 524.142 474.458 524.142Z" fill="#C5E4E4"/>
<path d="M478.721 549.85H410.522C407.992 549.85 405.86 547.719 405.86 545.188C405.86 542.657 407.992 540.526 410.522 540.526H478.721C481.252 540.526 483.383 542.657 483.383 545.188C483.383 547.719 481.385 549.85 478.721 549.85Z" fill="#C5E4E4"/>
<path d="M416.516 587.146C414.252 587.146 412.254 585.547 411.854 583.15L360.306 251.215C359.906 248.685 361.638 246.287 364.169 245.887C366.7 245.488 369.097 247.219 369.497 249.75L421.045 581.685C421.445 584.215 419.713 586.613 417.182 587.013C417.049 587.146 416.783 587.146 416.516 587.146Z" fill="#30C689"/>
<path d="M484.715 587.146C482.45 587.146 480.452 585.547 480.053 583.15L428.504 251.215C428.105 248.685 429.836 246.287 432.367 245.887C434.898 245.488 437.296 247.219 437.695 249.75L489.244 581.685C489.643 584.215 487.912 586.613 485.381 587.013C485.248 587.146 484.981 587.146 484.715 587.146Z" fill="#30C689"/>
<mask id="mask2_60_7" style="mask-type:luminance" maskUnits="userSpaceOnUse" x="360" y="245" width="130" height="343">
<path d="M489.377 581.685L437.829 249.75C437.429 247.219 435.031 245.488 432.501 245.887C429.97 246.287 428.238 248.685 428.638 251.215L429.837 259.207H371.095L369.63 249.883C369.231 247.353 366.833 245.621 364.302 246.021C361.771 246.42 360.04 248.818 360.439 251.349L370.03 313.42C370.03 313.553 370.03 313.819 370.03 313.953C370.03 314.619 370.163 315.285 370.429 315.951L378.022 364.835C378.022 364.968 378.022 365.235 378.022 365.368C378.022 366.034 378.155 366.7 378.421 367.366L390.01 441.958C390.01 442.091 390.01 442.357 390.01 442.491C390.01 443.157 390.143 443.823 390.409 444.489L394.006 468.065C394.006 468.198 394.006 468.198 394.006 468.331C394.006 468.864 394.139 469.397 394.272 469.93L405.861 544.788C405.861 544.921 405.861 545.188 405.861 545.321C405.861 545.987 405.994 546.653 406.26 547.319L411.855 583.283C412.254 585.547 414.252 587.279 416.517 587.279C416.783 587.279 417.049 587.279 417.183 587.279C419.713 586.879 421.445 584.482 421.045 581.951L416.117 550.116H474.858L480.053 583.416C480.453 585.681 482.451 587.412 484.715 587.412C484.981 587.412 485.248 587.412 485.381 587.412C488.045 586.613 489.777 584.215 489.377 581.685ZM404.262 472.727H463.003L465.534 489.111H406.793L404.262 472.727ZM392.141 395.071L450.616 393.873L453.413 412.121H394.672L392.141 395.071ZM455.011 421.312L457.542 437.695H398.801L396.27 421.312H455.011ZM380.286 318.481H439.027L441.558 334.865H382.817L380.286 318.481ZM437.562 309.157H378.821L376.29 292.774H435.031L437.562 309.157ZM443.023 344.189L445.554 360.573H386.813L384.282 344.189H443.023ZM447.019 369.897L449.284 384.415L390.809 385.614L388.411 369.763H447.019V369.897ZM459.007 447.019L461.538 463.403H402.797L400.266 447.019H459.007ZM408.258 498.435H466.999L469.53 514.818H410.789L408.258 498.435ZM431.302 268.398L433.699 283.45H374.958L372.561 268.398H431.302ZM414.785 540.526L412.254 524.142H470.995L473.526 540.526H414.785Z" fill="white"/>
</mask>
<g mask="url(#mask2_60_7)">
<path opacity="0.5" d="M535.597 579.686C531.068 573.559 534.798 554.112 513.619 539.46C513.619 539.46 517.482 522.011 518.681 515.218C520.279 505.627 518.548 487.778 508.558 477.788C508.558 477.788 506.027 463.003 506.293 456.476C506.56 450.083 507.892 441.958 507.226 435.164C507.226 435.164 506.293 420.379 514.019 418.115L503.363 413.986L504.029 403.33L488.578 400.399L488.045 404.928L485.78 402.53H485.914V399.334H484.448V398.135H485.647V397.602H483.116H481.518V398.135H480.319V399.334V402.53L473.792 409.723C472.727 410.922 472.46 412.654 472.993 414.119C472.194 414.252 471.395 414.518 470.596 414.785V413.32C470.596 407.858 466.067 403.33 460.606 403.33V401.198C461.005 400.932 461.405 400.532 461.405 399.866V399.2C461.405 398.401 460.739 397.735 459.94 397.735H453.413C452.614 397.735 451.948 398.401 451.948 399.2V399.866C451.948 400.532 452.48 401.198 453.146 401.332V403.196H448.351C447.685 403.196 447.019 403.729 447.019 404.528V421.445H444.488C444.622 421.312 444.622 421.045 444.622 420.912V419.314C444.622 418.914 444.355 418.514 443.956 418.381C444.355 418.248 444.622 417.848 444.622 417.449V415.85C444.622 415.318 444.222 414.918 443.689 414.918H443.023C443.956 414.918 444.622 414.252 444.622 413.32V412.387V412.254C444.622 408.258 441.824 404.928 438.095 403.996V402.397C438.894 402.264 439.56 401.598 439.56 400.666C439.56 399.733 438.761 398.934 437.828 398.934H434.898C433.966 398.934 433.166 399.733 433.166 400.666C433.166 401.598 433.832 402.264 434.632 402.397V403.996C430.769 404.795 427.838 408.125 427.838 412.254V412.387V413.32C427.838 414.252 428.504 414.918 429.437 414.918H428.771C428.238 414.918 427.838 415.318 427.838 415.85V417.449C427.838 417.848 428.105 418.248 428.504 418.381C428.105 418.514 427.838 418.914 427.838 419.314V420.912C427.838 421.178 427.972 421.312 428.105 421.445H427.439V476.856H471.262C468.997 483.383 464.602 496.703 462.204 504.029C459.007 513.886 453.546 533.599 454.079 544.255C454.745 554.911 465.001 579.42 466.333 590.076C466.333 590.076 459.54 592.074 458.874 594.205C458.208 596.336 467.266 596.47 474.991 595.804C482.717 595.138 483.782 598.068 481.918 588.078C480.719 582.084 481.252 571.028 479.786 560.905C478.854 551.714 476.19 540.526 476.19 540.526C476.19 540.526 479.786 527.472 484.049 519.48C488.311 511.488 490.176 493.24 490.176 493.24C490.176 493.24 491.508 539.726 494.705 547.052C497.902 554.512 519.214 577.955 522.81 584.748C522.81 584.748 515.617 596.336 518.681 597.668C521.744 599 529.47 591.541 532.667 590.875C535.997 590.342 540.126 585.814 535.597 579.686Z" fill="black"/>
</g>
<path d="M548.917 579.687C544.388 573.559 548.118 554.112 526.939 539.46C526.939 539.46 530.802 522.011 532.001 515.218C533.599 505.627 531.868 487.779 521.878 477.789C521.878 477.789 519.347 463.003 519.613 456.477C519.88 450.083 521.212 441.958 520.546 435.165C520.546 435.165 519.613 420.379 527.339 418.115L516.683 413.986L517.349 403.33L501.898 400.399L500.299 412.92C500.299 412.92 467.798 408.658 462.604 441.159L476.19 449.417C476.19 449.417 481.385 434.898 486.18 434.232L485.914 472.86C485.914 472.86 478.854 494.039 475.657 503.896C472.46 513.753 466.999 533.466 467.532 544.122C468.198 554.778 478.454 579.287 479.786 589.943C479.786 589.943 472.993 591.941 472.327 594.072C471.661 596.203 480.719 596.337 488.444 595.671C496.17 595.005 497.236 597.935 495.371 587.945C494.172 581.951 494.705 570.895 493.24 560.772C492.307 551.581 489.643 540.393 489.643 540.393C489.643 540.393 493.24 527.339 497.502 519.347C501.764 511.355 503.629 493.107 503.629 493.107C503.629 493.107 504.961 539.593 508.158 546.919C511.355 554.379 532.667 577.822 536.263 584.615C536.263 584.615 529.07 596.203 532.134 597.535C535.198 598.867 542.923 591.408 546.12 590.742C549.317 590.343 553.446 585.814 548.917 579.687Z" fill="#F29D2C"/>
<mask id="mask3_60_7" style="mask-type:luminance" maskUnits="userSpaceOnUse" x="462" y="400" width="89" height="198">
<path d="M548.917 579.687C544.388 573.559 548.118 554.112 526.939 539.46C526.939 539.46 530.802 522.011 532.001 515.218C533.599 505.627 531.868 487.779 521.878 477.789C521.878 477.789 519.347 463.003 519.613 456.477C519.88 450.083 521.212 441.958 520.546 435.165C520.546 435.165 519.613 420.379 527.339 418.115L516.683 413.986L517.349 403.33L501.898 400.399L500.299 412.92C500.299 412.92 467.798 408.658 462.604 441.159L476.19 449.417C476.19 449.417 481.385 434.898 486.18 434.232L485.914 472.86C485.914 472.86 478.854 494.039 475.657 503.896C472.46 513.753 466.999 533.466 467.532 544.122C468.198 554.778 478.454 579.287 479.786 589.943C479.786 589.943 472.993 591.941 472.327 594.072C471.661 596.203 480.719 596.337 488.444 595.671C496.17 595.005 497.236 597.935 495.371 587.945C494.172 581.951 494.705 570.895 493.24 560.772C492.307 551.581 489.643 540.393 489.643 540.393C489.643 540.393 493.24 527.339 497.502 519.347C501.764 511.355 503.629 493.107 503.629 493.107C503.629 493.107 504.961 539.593 508.158 546.919C511.355 554.379 532.667 577.822 536.263 584.615C536.263 584.615 529.07 596.203 532.134 597.535C535.198 598.867 542.923 591.408 546.12 590.742C549.317 590.343 553.446 585.814 548.917 579.687Z" fill="white"/>
</mask>
<g mask="url(#mask3_60_7)">
<path d="M477.788 472.727C477.788 472.727 495.238 478.854 527.072 470.462L543.589 500.033L535.73 523.076C535.73 523.076 518.148 529.47 502.297 525.607L498.434 526.806C498.434 526.806 484.582 531.335 465.268 520.146L477.788 472.727Z" fill="#ACE5E0"/>
</g>
<mask id="mask4_60_7" style="mask-type:luminance" maskUnits="userSpaceOnUse" x="462" y="400" width="89" height="198">
<path d="M548.917 579.687C544.388 573.559 548.118 554.112 526.939 539.46C526.939 539.46 530.802 522.011 532.001 515.218C533.599 505.627 531.868 487.779 521.878 477.789C521.878 477.789 519.347 463.003 519.613 456.477C519.88 450.083 521.212 441.958 520.546 435.165C520.546 435.165 519.613 420.379 527.339 418.115L516.683 413.986L517.349 403.33L501.898 400.399L500.299 412.92C500.299 412.92 467.798 408.658 462.604 441.159L476.19 449.417C476.19 449.417 481.385 434.898 486.18 434.232L485.914 472.86C485.914 472.86 478.854 494.039 475.657 503.896C472.46 513.753 466.999 533.466 467.532 544.122C468.198 554.778 478.454 579.287 479.786 589.943C479.786 589.943 472.993 591.941 472.327 594.072C471.661 596.203 480.719 596.337 488.444 595.671C496.17 595.005 497.236 597.935 495.371 587.945C494.172 581.951 494.705 570.895 493.24 560.772C492.307 551.581 489.643 540.393 489.643 540.393C489.643 540.393 493.24 527.339 497.502 519.347C501.764 511.355 503.629 493.107 503.629 493.107C503.629 493.107 504.961 539.593 508.158 546.919C511.355 554.379 532.667 577.822 536.263 584.615C536.263 584.615 529.07 596.203 532.134 597.535C535.198 598.867 542.923 591.408 546.12 590.742C549.317 590.343 553.446 585.814 548.917 579.687Z" fill="white"/>
</mask>
<g mask="url(#mask4_60_7)">
<path d="M494.705 403.996L500.299 413.053C500.299 413.053 504.428 421.178 516.683 413.986L535.597 418.115V433.033L523.876 472.061C523.876 472.061 495.504 485.248 473.26 469.53L486.18 434.365C486.18 434.365 487.645 418.648 493.24 410.123L494.705 403.996Z" fill="#92EC5F"/>
</g>
<mask id="mask5_60_7" style="mask-type:luminance" maskUnits="userSpaceOnUse" x="462" y="400" width="89" height="198">
<path d="M548.917 579.687C544.388 573.559 548.118 554.112 526.939 539.46C526.939 539.46 530.802 522.011 532.001 515.218C533.599 505.627 531.868 487.779 521.878 477.789C521.878 477.789 519.347 463.003 519.613 456.477C519.88 450.083 521.212 441.958 520.546 435.165C520.546 435.165 519.613 420.379 527.339 418.115L516.683 413.986L517.349 403.33L501.898 400.399L500.299 412.92C500.299 412.92 467.798 408.658 462.604 441.159L476.19 449.417C476.19 449.417 481.385 434.898 486.18 434.232L485.914 472.86C485.914 472.86 478.854 494.039 475.657 503.896C472.46 513.753 466.999 533.466 467.532 544.122C468.198 554.778 478.454 579.287 479.786 589.943C479.786 589.943 472.993 591.941 472.327 594.072C471.661 596.203 480.719 596.337 488.444 595.671C496.17 595.005 497.236 597.935 495.371 587.945C494.172 581.951 494.705 570.895 493.24 560.772C492.307 551.581 489.643 540.393 489.643 540.393C489.643 540.393 493.24 527.339 497.502 519.347C501.764 511.355 503.629 493.107 503.629 493.107C503.629 493.107 504.961 539.593 508.158 546.919C511.355 554.379 532.667 577.822 536.263 584.615C536.263 584.615 529.07 596.203 532.134 597.535C535.198 598.867 542.923 591.408 546.12 590.742C549.317 590.343 553.446 585.814 548.917 579.687Z" fill="white"/>
</mask>
<g mask="url(#mask5_60_7)">
<path d="M530.402 586.08L534.798 586.214C534.798 586.214 538.794 584.748 543.456 587.412C543.456 587.412 547.452 587.146 551.981 578.754L557.708 588.744L541.058 599.667L528.937 601.665L527.472 595.404L530.402 586.08Z" fill="#30C689"/>
</g>
<mask id="mask6_60_7" style="mask-type:luminance" maskUnits="userSpaceOnUse" x="462" y="400" width="89" height="198">
<path d="M548.917 579.687C544.388 573.559 548.118 554.112 526.939 539.46C526.939 539.46 530.802 522.011 532.001 515.218C533.599 505.627 531.868 487.779 521.878 477.789C521.878 477.789 519.347 463.003 519.613 456.477C519.88 450.083 521.212 441.958 520.546 435.165C520.546 435.165 519.613 420.379 527.339 418.115L516.683 413.986L517.349 403.33L501.898 400.399L500.299 412.92C500.299 412.92 467.798 408.658 462.604 441.159L476.19 449.417C476.19 449.417 481.385 434.898 486.18 434.232L485.914 472.86C485.914 472.86 478.854 494.039 475.657 503.896C472.46 513.753 466.999 533.466 467.532 544.122C468.198 554.778 478.454 579.287 479.786 589.943C479.786 589.943 472.993 591.941 472.327 594.072C471.661 596.203 480.719 596.337 488.444 595.671C496.17 595.005 497.236 597.935 495.371 587.945C494.172 581.951 494.705 570.895 493.24 560.772C492.307 551.581 489.643 540.393 489.643 540.393C489.643 540.393 493.24 527.339 497.502 519.347C501.764 511.355 503.629 493.107 503.629 493.107C503.629 493.107 504.961 539.593 508.158 546.919C511.355 554.379 532.667 577.822 536.263 584.615C536.263 584.615 529.07 596.203 532.134 597.535C535.198 598.867 542.923 591.408 546.12 590.742C549.317 590.343 553.446 585.814 548.917 579.687Z" fill="white"/>
</mask>
<g mask="url(#mask6_60_7)">
<path d="M475.391 587.412L479.786 590.076C479.786 590.076 486.846 588.744 489.643 591.808C489.643 591.808 500.566 590.742 506.16 589.81L502.697 597.935L481.385 602.064L468.065 597.935L467.798 591.808L475.391 587.412Z" fill="#30C689"/>
</g>
<mask id="mask7_60_7" style="mask-type:luminance" maskUnits="userSpaceOnUse" x="462" y="400" width="89" height="198">
<path d="M548.917 579.687C544.388 573.559 548.118 554.112 526.939 539.46C526.939 539.46 530.802 522.011 532.001 515.218C533.599 505.627 531.868 487.779 521.878 477.789C521.878 477.789 519.347 463.003 519.613 456.477C519.88 450.083 521.212 441.958 520.546 435.165C520.546 435.165 519.613 420.379 527.339 418.115L516.683 413.986L517.349 403.33L501.898 400.399L500.299 412.92C500.299 412.92 467.798 408.658 462.604 441.159L476.19 449.417C476.19 449.417 481.385 434.898 486.18 434.232L485.914 472.86C485.914 472.86 478.854 494.039 475.657 503.896C472.46 513.753 466.999 533.466 467.532 544.122C468.198 554.778 478.454 579.287 479.786 589.943C479.786 589.943 472.993 591.941 472.327 594.072C471.661 596.203 480.719 596.337 488.444 595.671C496.17 595.005 497.236 597.935 495.371 587.945C494.172 581.951 494.705 570.895 493.24 560.772C492.307 551.581 489.643 540.393 489.643 540.393C489.643 540.393 493.24 527.339 497.502 519.347C501.764 511.355 503.629 493.107 503.629 493.107C503.629 493.107 504.961 539.593 508.158 546.919C511.355 554.379 532.667 577.822 536.263 584.615C536.263 584.615 529.07 596.203 532.134 597.535C535.198 598.867 542.923 591.408 546.12 590.742C549.317 590.343 553.446 585.814 548.917 579.687Z" fill="white"/>
</mask>
<g mask="url(#mask7_60_7)">
<path opacity="0.5" d="M503.363 494.838C503.363 494.838 496.969 511.089 489.377 522.144C481.784 533.2 481.518 537.063 484.049 545.188C486.58 553.446 493.106 595.671 493.106 595.671L501.365 595.937L500.432 562.371V524.009L503.363 494.838Z" fill="black"/>
</g>
<path d="M535.331 359.907C535.331 359.907 544.255 361.372 542.257 373.76C540.259 386.147 538.394 396.004 535.331 397.203" stroke="#00492B" stroke-miterlimit="10"/>
<path d="M532.001 359.374C532.001 359.374 519.746 345.921 507.359 355.245" stroke="#00492B" stroke-miterlimit="10"/>
<path d="M529.07 358.841C529.07 358.841 518.681 349.783 507.226 353.646C495.77 357.509 494.039 370.429 493.639 378.421C493.24 386.413 491.108 396.403 500.566 397.336C510.023 398.268 518.814 398.934 523.343 400.533C527.872 402.131 533.066 403.729 535.331 397.336C537.728 390.942 538.394 384.682 540.259 377.356C542.257 370.03 541.325 356.044 529.07 358.841Z" fill="#00492B"/>
<path d="M519.613 359.107C529.07 362.704 533.333 368.964 531.601 379.354C529.87 389.61 530.269 407.326 510.556 406.393C490.842 405.594 495.104 387.079 495.104 378.022C495.104 368.964 500.299 351.781 519.613 359.107Z" fill="#F29D2C"/>
<path d="M441.025 412.387C441.025 408.258 443.956 404.928 447.818 404.129V401.465H451.282V404.129C455.011 404.928 457.808 408.391 457.808 412.387V412.52V413.453C457.808 414.385 457.142 415.051 456.21 415.051H456.876C457.409 415.051 457.808 415.451 457.808 415.984V417.582C457.808 417.982 457.542 418.381 457.142 418.514C457.542 418.648 457.808 419.047 457.808 419.447V421.045C457.808 421.445 457.542 421.844 457.142 421.978C457.542 422.111 457.808 422.51 457.808 422.91V424.508C457.808 424.908 457.542 425.308 457.142 425.441C457.542 425.574 457.808 425.974 457.808 426.373V427.972C457.808 428.371 457.542 428.771 457.142 428.904C457.542 429.037 457.808 429.437 457.808 429.836V431.435C457.808 431.968 457.409 432.367 456.876 432.367H456.476C457.276 432.367 457.942 433.033 457.942 433.832V438.494C457.942 440.093 456.61 441.425 455.011 441.425H443.956C442.357 441.425 441.025 440.093 441.025 438.494V433.832C441.025 433.033 441.691 432.367 442.49 432.367H442.091C441.558 432.367 441.158 431.968 441.158 431.435V429.836C441.158 429.437 441.425 429.037 441.824 428.904C441.425 428.771 441.158 428.371 441.158 427.972V426.373C441.158 425.974 441.425 425.574 441.824 425.441C441.425 425.308 441.158 424.908 441.158 424.508V422.91C441.158 422.51 441.425 422.111 441.824 421.978C441.425 421.844 441.158 421.445 441.158 421.045V419.447C441.158 419.047 441.425 418.648 441.824 418.514C441.425 418.381 441.158 417.982 441.158 417.582V415.984C441.158 415.451 441.558 415.051 442.091 415.051H442.757C441.824 415.051 441.158 414.385 441.158 413.453V412.52C441.025 412.52 441.025 412.387 441.025 412.387Z" fill="#FF8E46"/>
<path d="M457.942 419.447V421.045C457.942 421.445 457.675 421.845 457.276 421.978C457.675 422.111 457.942 422.511 457.942 422.91V424.509C457.942 424.908 457.675 425.308 457.276 425.441C457.675 425.574 457.942 425.974 457.942 426.373V427.972C457.942 428.371 457.675 428.638 457.409 428.771H441.558C441.292 428.638 441.025 428.238 441.025 427.972V426.373C441.025 425.974 441.292 425.574 441.691 425.441C441.292 425.308 441.025 424.908 441.025 424.509V422.91C441.025 422.511 441.292 422.111 441.691 421.978C441.292 421.845 441.025 421.445 441.025 421.045V419.447C441.025 419.047 441.292 418.648 441.691 418.515H457.276C457.675 418.781 457.942 419.047 457.942 419.447Z" fill="white"/>
<path d="M441.025 412.387C441.025 408.258 443.956 404.928 447.818 404.129V401.465H449.55L449.417 441.025H443.822C442.224 441.025 440.892 439.693 440.892 438.095V433.433C440.892 432.634 441.558 431.968 442.357 431.968H441.958C441.425 431.968 441.025 431.568 441.025 431.035V429.437C441.025 429.037 441.292 428.638 441.691 428.504C441.292 428.371 441.025 427.972 441.025 427.572V425.974C441.025 425.574 441.292 425.174 441.691 425.041C441.292 424.908 441.025 424.508 441.025 424.109V422.51C441.025 422.111 441.292 421.711 441.691 421.578C441.292 421.445 441.025 421.045 441.025 420.646V419.047C441.025 418.648 441.292 418.248 441.691 418.115C441.292 417.982 441.025 417.582 441.025 417.182V415.584C441.025 415.051 441.425 414.652 441.958 414.652H442.624C441.691 414.652 441.025 413.986 441.025 413.053V412.121C441.025 412.52 441.025 412.387 441.025 412.387Z" fill="white"/>
<path d="M448.085 402.664H451.015C451.948 402.664 452.747 401.865 452.747 400.932C452.747 400 451.948 399.201 451.015 399.201H448.085C447.152 399.201 446.353 400 446.353 400.932C446.353 401.865 447.152 402.664 448.085 402.664Z" fill="#FFD055"/>
<path d="M494.705 372.428C494.705 372.428 503.896 373.493 516.416 366.167C516.416 366.167 513.752 368.698 511.222 370.43C511.222 370.43 517.216 371.229 520.945 367.366C520.945 367.366 519.88 375.092 525.74 378.155L524.009 390.41H527.472L528.937 384.149C528.937 384.149 530.802 382.95 534.532 384.549C534.532 384.549 540.392 364.702 522.277 357.243C504.162 349.784 496.037 363.636 494.705 372.428Z" fill="#00492B"/>
<path d="M517.082 406.26C517.082 406.26 509.09 407.193 501.365 404.262L500.432 410.123C500.566 410.123 512.287 412.254 517.082 406.26Z" fill="#CC750D"/>
<path d="M458.874 425.308V446.22C458.874 446.487 459.14 446.753 459.407 446.753H468.997C469.13 446.753 469.397 446.62 469.53 446.487L470.729 443.956C470.995 443.556 471.528 443.556 471.661 444.089L472.86 446.487C472.993 446.753 473.126 446.886 473.393 446.886H483.649C483.916 446.886 484.182 446.62 484.182 446.354V413.453C484.182 407.992 479.653 403.463 474.192 403.463V401.199H466.6V403.463H461.804C461.138 403.463 460.472 403.996 460.472 404.795V424.642C460.206 424.775 459.806 424.775 459.54 424.908C459.007 424.908 458.874 425.041 458.874 425.308ZM462.87 405.994H466.067L465.8 416.783C465.8 419.181 464.735 421.578 462.737 423.177V405.994H462.87Z" fill="white"/>
<path d="M473.26 401.465H466.733C465.934 401.465 465.268 400.799 465.268 400V399.334C465.268 398.535 465.934 397.869 466.733 397.869H473.26C474.059 397.869 474.725 398.535 474.725 399.334V400C474.725 400.799 474.059 401.465 473.26 401.465Z" fill="#C9E849"/>
<path d="M486.18 434.232L489.11 418.514L487.246 415.717C485.647 414.119 485.514 411.455 487.112 409.856L493.639 402.664H495.238H497.502H499.1L505.627 409.856C507.226 411.588 507.092 414.119 505.494 415.717L503.629 418.514L506.56 434.232C506.693 434.765 506.693 435.298 506.693 435.83V442.624C506.426 443.956 505.228 445.021 503.762 445.021H501.631H498.035H494.438H491.375H488.844C487.512 445.021 486.18 444.089 485.914 442.624V435.83C486.047 435.298 486.047 434.765 486.18 434.232Z" fill="#30C689"/>
<path d="M494.705 440.226H498.168C500.299 440.226 502.031 438.495 502.031 436.363V424.908C502.031 422.777 500.299 421.045 498.168 421.045H494.705C492.574 421.045 490.842 422.777 490.842 424.908V436.363C490.842 438.628 492.574 440.226 494.705 440.226Z" fill="white"/>
<path d="M500.965 419.58C501.232 419.58 501.365 419.314 501.365 419.18V412.254C501.365 411.988 501.098 411.854 500.965 411.854C500.699 411.854 500.566 412.121 500.566 412.254V419.18C500.566 419.447 500.699 419.58 500.965 419.58Z" fill="white"/>
<path d="M498.701 419.58C498.967 419.58 499.1 419.314 499.1 419.18V412.254C499.1 411.988 498.834 411.854 498.701 411.854C498.568 411.854 498.301 412.121 498.301 412.254V419.18C498.301 419.447 498.434 419.58 498.701 419.58Z" fill="white"/>
<path d="M496.436 419.58C496.703 419.58 496.836 419.314 496.836 419.18V412.254C496.836 411.988 496.57 411.854 496.436 411.854C496.17 411.854 496.037 412.121 496.037 412.254V419.18C496.037 419.447 496.17 419.58 496.436 419.58Z" fill="white"/>
<path d="M494.172 419.58C494.438 419.58 494.572 419.314 494.572 419.18V412.254C494.572 411.988 494.305 411.854 494.172 411.854C493.906 411.854 493.772 412.121 493.772 412.254V419.18C493.772 419.447 493.906 419.58 494.172 419.58Z" fill="white"/>
<path d="M491.908 419.58C492.174 419.58 492.307 419.314 492.307 419.18V412.254C492.307 411.988 492.041 411.854 491.908 411.854C491.774 411.854 491.508 412.121 491.508 412.254V419.18C491.508 419.447 491.641 419.58 491.908 419.58Z" fill="white"/>
<path d="M496.436 430.369C498.275 430.369 499.766 428.879 499.766 427.039C499.766 425.2 498.275 423.709 496.436 423.709C494.597 423.709 493.106 425.2 493.106 427.039C493.106 428.879 494.597 430.369 496.436 430.369Z" fill="#FFA31D"/>
<path d="M500.832 431.435H492.174V432.367H500.832V431.435Z" fill="#FFA31D"/>
<path d="M500.832 433.433H492.174V434.366H500.832V433.433Z" fill="#FFA31D"/>
<path d="M500.832 435.298H492.174V436.23H500.832V435.298Z" fill="#FFA31D"/>
<path d="M500.832 437.163H492.174V438.095H500.832V437.163Z" fill="#FFA31D"/>
<path d="M493.744 402.5L499.205 402.5L499.205 399.304L493.744 399.304L493.744 402.5Z" fill="#FFA31D"/>
<path d="M493.673 399.261L497.803 399.261L497.803 398.062L493.673 398.062L493.673 399.261Z" fill="#FFA31D"/>
<path d="M494.911 398.035L499.04 398.035L499.04 397.502L494.911 397.502L494.911 398.035Z" fill="#FFA31D"/>
<path d="M486.18 434.232L489.11 418.515L487.246 415.717C485.647 414.119 485.514 411.455 487.112 409.857L493.639 402.664V399.467V398.268H494.838V397.735H496.436V444.888H494.572H491.508H488.977C487.645 444.888 486.313 443.956 486.047 442.491V435.697C486.047 435.298 486.047 434.765 486.18 434.232Z" fill="black"/>
<path d="M509.89 421.578H440.626V476.856H509.89V421.578Z" fill="#FFD055"/>
<path d="M510.023 421.578H498.434V476.856H510.023V421.578Z" fill="#FFB744"/>
<path d="M526.14 418.248C532.267 416.783 537.062 428.238 538.661 435.031C540.259 441.825 546.386 455.278 541.858 463.669C537.329 472.061 524.142 481.119 503.23 480.453C482.317 479.787 487.778 472.727 503.23 473.659C503.23 473.659 502.43 470.063 501.764 468.598C501.098 467.133 501.232 463.936 503.096 463.936C504.961 463.936 506.16 469.53 509.224 469.131C509.224 469.131 514.818 465.934 518.681 464.602C522.544 463.27 528.671 457.143 523.343 445.421C518.015 433.699 516.283 420.513 526.14 418.248Z" fill="#F29D2C"/>
<path d="M528.937 384.282C528.937 384.282 533.999 381.752 535.464 387.08C536.929 392.408 531.601 393.34 528.937 391.608V384.282Z" fill="#F29D2C"/>
<mask id="mask8_60_7" style="mask-type:luminance" maskUnits="userSpaceOnUse" x="494" y="355" width="42" height="36">
<path d="M494.705 372.428C494.705 372.428 503.896 373.493 516.416 366.167C516.416 366.167 513.752 368.698 511.222 370.43C511.222 370.43 517.216 371.229 520.945 367.366C520.945 367.366 519.88 375.092 525.74 378.155L524.009 390.41H527.472L528.937 384.149C528.937 384.149 530.802 382.95 534.532 384.549C534.532 384.549 540.392 364.702 522.277 357.243C504.162 349.784 496.037 363.636 494.705 372.428Z" fill="white"/>
</mask>
<g mask="url(#mask8_60_7)">
<path d="M527.072 357.376C527.072 357.376 505.894 372.694 490.576 370.03" stroke="#095B38" stroke-miterlimit="10"/>
</g>
<mask id="mask9_60_7" style="mask-type:luminance" maskUnits="userSpaceOnUse" x="494" y="355" width="42" height="36">
<path d="M494.705 372.428C494.705 372.428 503.896 373.493 516.416 366.167C516.416 366.167 513.752 368.698 511.222 370.43C511.222 370.43 517.216 371.229 520.945 367.366C520.945 367.366 519.88 375.092 525.74 378.155L524.009 390.41H527.472L528.937 384.149C528.937 384.149 530.802 382.95 534.532 384.549C534.532 384.549 540.392 364.702 522.277 357.243C504.162 349.784 496.037 363.636 494.705 372.428Z" fill="white"/>
</mask>
<g mask="url(#mask9_60_7)">
<path d="M525.874 355.112C525.874 355.112 505.361 367.899 491.908 366.301" stroke="#095B38" stroke-miterlimit="10"/>
</g>
<mask id="mask10_60_7" style="mask-type:luminance" maskUnits="userSpaceOnUse" x="494" y="355" width="42" height="36">
<path d="M494.705 372.428C494.705 372.428 503.896 373.493 516.416 366.167C516.416 366.167 513.752 368.698 511.222 370.43C511.222 370.43 517.216 371.229 520.945 367.366C520.945 367.366 519.88 375.092 525.74 378.155L524.009 390.41H527.472L528.937 384.149C528.937 384.149 530.802 382.95 534.532 384.549C534.532 384.549 540.392 364.702 522.277 357.243C504.162 349.784 496.037 363.636 494.705 372.428Z" fill="white"/>
</mask>
<g mask="url(#mask10_60_7)">
<path d="M530.269 358.708C530.269 358.708 522.277 375.491 539.06 383.084" stroke="#095B38" stroke-miterlimit="10"/>
</g>
<path d="M500.832 499.234H506.826V491.642L500.832 490.976V499.234Z" fill="#ACE5E0"/>
<path d="M320.879 220.846C318.348 222.444 315.018 222.044 313.02 219.913L311.288 220.979L309.823 218.714L311.555 217.649C310.622 214.985 311.555 211.788 314.086 210.19H314.219L314.885 209.79C315.418 209.39 316.217 209.657 316.616 210.19L316.35 209.79C316.084 209.524 316.217 208.991 316.616 208.858L317.549 208.192C317.815 208.058 318.082 208.058 318.348 208.192C318.215 207.925 318.348 207.526 318.614 207.392L319.547 206.726C319.813 206.593 320.08 206.593 320.346 206.726C320.213 206.46 320.346 206.06 320.612 205.927L321.545 205.261C321.811 205.128 322.078 205.128 322.344 205.261C322.211 204.995 322.344 204.595 322.61 204.462L323.543 203.796C323.809 203.663 324.076 203.663 324.342 203.796C324.209 203.53 324.342 203.13 324.608 202.997L325.541 202.331C325.807 202.064 326.34 202.198 326.473 202.597L326.606 202.864C326.34 202.331 326.473 201.665 326.873 201.398L329.803 199.534C330.869 198.868 332.201 199.134 332.867 200.2L337.262 207.126C337.928 208.192 337.662 209.524 336.596 210.056L333.666 211.921C333.133 212.188 332.467 212.054 332.201 211.655L332.334 211.921C332.6 212.188 332.467 212.72 332.068 212.854L331.135 213.52C330.869 213.653 330.602 213.653 330.336 213.52C330.469 213.786 330.336 214.185 330.07 214.319L329.137 214.985C328.871 215.118 328.604 215.118 328.338 214.985C328.471 215.251 328.338 215.651 328.072 215.784L327.139 216.45C326.873 216.583 326.606 216.583 326.34 216.45C326.473 216.716 326.34 217.116 326.074 217.249L325.141 217.915C324.875 218.048 324.608 218.048 324.342 217.915C324.475 218.182 324.342 218.581 324.076 218.714L323.143 219.38C322.877 219.647 322.344 219.514 322.211 219.114L321.944 218.714C322.344 219.247 322.078 220.046 321.545 220.446L320.879 220.846C321.012 220.846 321.012 220.846 320.879 220.846Z" fill="#B0F0ED"/>
<path d="M318.614 207.525L319.547 206.859C319.813 206.726 320.08 206.726 320.346 206.859C320.213 206.593 320.346 206.193 320.612 206.06L321.545 205.394C321.811 205.261 322.078 205.261 322.344 205.394C322.211 205.128 322.344 204.728 322.61 204.595L323.543 203.929C323.809 203.796 324.076 203.796 324.342 203.929L330.736 213.919C330.736 214.185 330.602 214.452 330.469 214.585L329.537 215.251C329.27 215.384 329.004 215.384 328.738 215.251C328.871 215.517 328.738 215.917 328.471 216.05L327.539 216.716C327.272 216.849 327.006 216.849 326.74 216.716C326.873 216.983 326.74 217.382 326.473 217.515L325.541 218.181C325.274 218.315 325.008 218.315 324.742 218.181L318.481 208.325C318.215 207.925 318.348 207.659 318.614 207.525Z" fill="white"/>
<path d="M320.879 220.846C318.348 222.444 315.018 222.045 313.02 219.913L311.288 220.979L310.622 219.913L335.531 204.062L337.795 207.659C338.461 208.724 338.195 210.057 337.129 210.589L334.199 212.454C333.666 212.721 333 212.587 332.734 212.188L332.867 212.454C333.133 212.721 333 213.253 332.6 213.386L331.668 214.052C331.402 214.186 331.135 214.186 330.869 214.052C331.002 214.319 330.869 214.719 330.602 214.852L329.67 215.518C329.404 215.651 329.137 215.651 328.871 215.518C329.004 215.784 328.871 216.184 328.604 216.317L327.672 216.983C327.406 217.116 327.139 217.116 326.873 216.983C327.006 217.249 326.873 217.649 326.606 217.782L325.674 218.448C325.408 218.581 325.141 218.581 324.875 218.448C325.008 218.715 324.875 219.114 324.608 219.247L323.676 219.913C323.41 220.18 322.877 220.046 322.744 219.647L322.477 219.247C322.877 219.78 322.61 220.579 322.078 220.979L320.879 220.846C321.012 220.846 321.012 220.846 320.879 220.846Z" fill="black"/>
<path d="M311.954 220.446L310.756 218.581C310.356 217.915 309.557 217.782 308.891 218.181C308.225 218.581 308.092 219.38 308.491 220.046L309.69 221.911C310.09 222.577 310.889 222.71 311.555 222.311C312.088 221.778 312.354 220.979 311.954 220.446Z" fill="#FFA31D"/>
<path d="M298.768 209.524C299.7 211.921 298.634 214.585 296.503 215.917L297.036 217.516L294.905 218.315L294.372 216.716C291.974 216.983 289.577 215.651 288.644 213.253C288.644 213.253 288.644 213.253 288.644 213.12L288.378 212.587C288.245 212.054 288.511 211.522 289.044 211.255L288.644 211.388C288.378 211.522 287.978 211.388 287.845 210.989L287.446 210.056C287.312 209.79 287.446 209.524 287.579 209.39C287.312 209.39 287.046 209.257 287.046 208.991L286.646 208.058C286.513 207.792 286.646 207.526 286.78 207.392C286.513 207.392 286.247 207.259 286.247 206.993L285.847 206.06C285.714 205.794 285.847 205.528 285.98 205.394C285.714 205.394 285.448 205.261 285.448 204.995L285.048 204.062C284.915 203.796 285.048 203.53 285.181 203.396C284.915 203.396 284.648 203.263 284.648 202.997L284.249 202.064C284.116 201.798 284.249 201.398 284.648 201.265L284.915 201.132C284.515 201.265 283.982 200.999 283.716 200.599L282.65 197.802C282.251 196.87 282.784 195.804 283.716 195.404L290.243 193.007C291.175 192.607 292.241 193.14 292.64 194.072L293.706 196.87C293.839 197.269 293.573 197.802 293.173 198.068L293.44 197.935C293.706 197.802 294.106 197.935 294.239 198.335L294.638 199.267C294.772 199.534 294.638 199.8 294.505 199.933C294.772 199.933 295.038 200.066 295.038 200.333L295.438 201.265C295.571 201.532 295.438 201.798 295.304 201.931C295.571 201.931 295.837 202.064 295.837 202.331L296.237 203.263C296.37 203.53 296.237 203.796 296.104 203.929C296.37 203.929 296.636 204.062 296.636 204.329L297.036 205.261C297.169 205.528 297.036 205.794 296.903 205.927C297.169 205.927 297.436 206.06 297.436 206.327L297.835 207.259C297.968 207.526 297.835 207.925 297.436 208.058L297.036 208.192C297.569 208.058 298.102 208.325 298.368 208.858L298.768 209.524Z" fill="#B0F0ED"/>
<path d="M287.179 208.991L286.78 208.058C286.646 207.792 286.78 207.525 286.913 207.392C286.646 207.392 286.38 207.259 286.38 206.993L285.98 206.06C285.847 205.794 285.98 205.527 286.114 205.394C285.847 205.394 285.581 205.261 285.581 204.995L285.181 204.062C285.048 203.796 285.181 203.663 285.314 203.396L294.638 199.933C294.905 199.933 295.038 200.066 295.171 200.333L295.571 201.265C295.704 201.532 295.571 201.798 295.438 201.931C295.704 201.931 295.97 202.064 295.97 202.331L296.37 203.263C296.503 203.53 296.37 203.796 296.237 203.929C296.503 203.929 296.77 204.062 296.77 204.329L297.169 205.261C297.302 205.528 297.169 205.794 297.036 205.927L287.845 209.257C287.579 209.39 287.312 209.257 287.179 208.991Z" fill="white"/>
<path d="M298.768 209.524C299.7 211.921 298.634 214.585 296.503 215.917L297.036 217.516L295.97 217.915L287.312 194.472L290.642 193.273C291.575 192.874 292.64 193.407 293.04 194.339L294.106 197.136C294.239 197.536 293.972 198.069 293.573 198.335L293.839 198.202C294.106 198.069 294.505 198.202 294.638 198.601L295.038 199.534C295.171 199.8 295.038 200.067 294.905 200.2C295.171 200.2 295.438 200.333 295.438 200.599L295.837 201.532C295.97 201.798 295.837 202.065 295.704 202.198C295.97 202.198 296.237 202.331 296.237 202.597L296.636 203.53C296.77 203.796 296.636 204.063 296.503 204.196C296.77 204.196 297.036 204.329 297.036 204.595L297.436 205.528C297.569 205.794 297.436 206.061 297.302 206.194C297.569 206.194 297.835 206.327 297.835 206.593L298.235 207.526C298.368 207.792 298.235 208.192 297.835 208.325L297.436 208.458C297.968 208.325 298.501 208.591 298.768 209.124V209.524Z" fill="black"/>
<path d="M296.77 216.85L295.038 217.516C294.505 217.782 294.106 218.315 294.372 218.981C294.638 219.514 295.171 219.913 295.837 219.647L297.569 218.981C298.102 218.715 298.501 218.182 298.235 217.516C297.968 216.983 297.302 216.717 296.77 216.85Z" fill="#FFD055"/>
<path d="M405.461 181.285C405.461 181.285 413.186 220.18 418.648 227.905C424.109 235.631 437.029 262.271 435.83 270.263C435.83 270.263 429.437 277.056 430.902 279.72C432.367 282.384 439.826 277.322 444.089 277.589C448.351 277.855 455.144 274.525 453.28 269.33C451.415 264.136 449.55 261.072 448.351 249.084C447.152 237.096 437.029 226.04 433.699 218.714C430.369 211.388 430.636 178.888 423.842 172.094C417.182 165.301 402.93 169.297 405.461 181.285Z" fill="#CC750D"/>
<mask id="mask11_60_7" style="mask-type:luminance" maskUnits="userSpaceOnUse" x="405" y="168" width="49" height="113">
<path d="M405.461 181.285C405.461 181.285 413.186 220.18 418.648 227.905C424.109 235.631 437.029 262.271 435.83 270.263C435.83 270.263 429.437 277.056 430.902 279.72C432.367 282.384 439.826 277.322 444.089 277.589C448.351 277.855 455.144 274.525 453.28 269.33C451.415 264.136 449.55 261.072 448.351 249.084C447.152 237.096 437.029 226.04 433.699 218.714C430.369 211.388 430.636 178.888 423.842 172.094C417.182 165.301 402.93 169.297 405.461 181.285Z" fill="white"/>
</mask>
<g mask="url(#mask11_60_7)">
<path d="M425.041 262.005C425.041 262.005 437.562 267.466 455.144 254.412L441.292 184.749L434.898 152.647L390.809 161.705L387.212 206.061L425.041 262.005Z" fill="#80D8CD"/>
</g>
<mask id="mask12_60_7" style="mask-type:luminance" maskUnits="userSpaceOnUse" x="405" y="168" width="49" height="113">
<path d="M405.461 181.285C405.461 181.285 413.186 220.18 418.648 227.905C424.109 235.631 437.029 262.271 435.83 270.263C435.83 270.263 429.437 277.056 430.902 279.72C432.367 282.384 439.826 277.322 444.089 277.589C448.351 277.855 455.144 274.525 453.28 269.33C451.415 264.136 449.55 261.072 448.351 249.084C447.152 237.096 437.029 226.04 433.699 218.714C430.369 211.388 430.636 178.888 423.842 172.094C417.182 165.301 402.93 169.297 405.461 181.285Z" fill="white"/>
</mask>
<g mask="url(#mask12_60_7)">
<path d="M455.144 262.004C455.144 262.004 447.818 262.004 444.089 265.334C440.359 268.664 434.232 268.664 429.437 268.664L426.373 282.784L438.628 287.446L458.874 277.589L455.144 262.004Z" fill="#FED358"/>
</g>
<mask id="mask13_60_7" style="mask-type:luminance" maskUnits="userSpaceOnUse" x="405" y="168" width="49" height="113">
<path d="M405.461 181.285C405.461 181.285 413.186 220.18 418.648 227.905C424.109 235.631 437.029 262.271 435.83 270.263C435.83 270.263 429.437 277.056 430.902 279.72C432.367 282.384 439.826 277.322 444.089 277.589C448.351 277.855 455.144 274.525 453.28 269.33C451.415 264.136 449.55 261.072 448.351 249.084C447.152 237.096 437.029 226.04 433.699 218.714C430.369 211.388 430.636 178.888 423.842 172.094C417.182 165.301 402.93 169.297 405.461 181.285Z" fill="white"/>
</mask>
<g mask="url(#mask13_60_7)">
<path d="M405.86 179.554C405.86 179.554 416.25 201.532 421.178 216.184C426.107 230.836 442.757 251.349 435.83 270.263L423.176 259.207L401.198 202.864L405.86 179.554Z" fill="black"/>
</g>
<path d="M358.574 191.409L366.433 200.067L365.368 219.381L364.036 220.58L346.72 201.399L358.574 191.409Z" fill="#FFD055"/>
<path d="M348.318 200.2L365.368 219.38L363.37 221.245L346.054 202.064L348.318 200.2Z" fill="#FFB744"/>
<path d="M330.736 160.906L322.477 152.647H303.163L301.831 153.979L320.08 172.228L330.736 160.906Z" fill="#FFD055"/>
<path d="M321.412 170.763L303.163 152.647L300.899 154.912L318.748 172.894L321.412 170.763Z" fill="#FFB744"/>
<path d="M361.238 50.0833C361.238 50.0833 349.65 50.7493 346.586 62.6041C343.523 74.4589 356.31 85.6477 353.912 93.2401C351.515 100.966 355.111 109.491 366.433 105.495C366.433 105.495 375.624 113.753 384.282 102.165C384.282 102.165 393.206 100.966 397.735 96.0373C402.397 91.1089 399.334 85.9141 399.334 85.9141C399.334 85.9141 405.061 83.9161 402.664 76.0573C400.266 68.1985 394.139 68.7313 389.21 61.6717C384.282 54.6121 377.489 39.9601 361.238 50.0833Z" fill="#00492B"/>
<path d="M349.117 58.7412C349.117 58.7412 342.457 64.7352 346.054 76.0572C349.783 87.3792 352.58 88.4448 351.781 93.6396C350.982 98.8344 351.248 106.427 361.238 105.228" stroke="#00492B" stroke-miterlimit="10"/>
<path d="M388.278 102.164C397.336 102.564 396.536 112.021 395.338 121.745C394.139 131.602 389.876 142.924 384.016 149.051C378.155 155.178 375.491 163.969 367.099 168.098C358.841 172.361 346.853 175.424 346.853 175.424C346.853 175.424 345.654 178.488 341.658 180.353C341.658 180.353 335.664 184.082 333.932 182.484C332.201 180.886 336.33 179.287 336.33 179.287C336.33 179.287 330.203 182.617 329.004 180.886C327.805 179.021 331.934 177.955 331.934 177.955C331.934 177.955 326.873 178.621 326.473 177.023C326.074 175.424 331.402 175.025 331.402 175.025C331.402 175.025 327.672 175.424 327.539 173.293C327.406 171.162 332.334 171.162 337.662 168.764C337.662 168.764 336.064 166.5 334.465 166.367C332.734 166.234 332.467 163.969 335.664 163.436C338.861 163.037 342.857 167.566 342.857 167.566C342.857 167.566 348.851 163.836 352.314 161.305C355.777 158.641 364.302 147.452 368.431 146.786C368.431 146.786 373.493 136.53 374.159 131.202C374.825 126.007 373.626 101.632 388.278 102.164Z" fill="#CC750D"/>
<path d="M376.956 96.0374L384.282 107.626C384.282 107.626 382.684 116.55 382.151 121.479C381.618 126.407 382.417 129.471 386.413 134.932C390.409 140.393 396.803 144.389 397.202 155.178C397.469 165.967 393.872 189.277 394.405 208.591C394.938 227.905 391.342 254.945 393.739 272.394C393.739 272.394 386.68 277.589 383.882 279.187C381.085 280.786 378.954 285.048 386.946 284.382C394.938 283.716 399.866 284.249 403.862 284.382C407.858 284.649 410.922 283.05 409.99 274.525C409.057 266.001 409.99 255.478 413.32 242.025C416.65 228.571 417.582 216.583 418.514 206.727C419.447 196.87 425.574 184.615 427.439 178.222C429.304 171.828 428.371 163.836 422.51 157.043C422.51 157.043 420.646 147.186 420.113 137.995C419.447 128.805 416.383 100.167 393.739 99.9002L386.413 89.9102L376.956 96.0374Z" fill="#F29D2C"/>
<path d="M354.445 57.0097C361.638 52.7473 374.026 48.8845 380.153 57.0097C386.28 65.1349 401.864 82.3177 384.282 95.9041C366.7 109.49 357.775 85.2481 352.048 80.3197C346.32 75.3913 346.72 61.5385 354.445 57.0097Z" fill="#F29D2C"/>
<path d="M352.58 84.7154C352.58 84.7154 352.714 84.5822 352.98 84.449C354.578 83.2502 360.306 78.455 361.372 71.795C361.372 71.795 362.304 74.8586 361.372 78.9878C361.372 78.9878 370.962 72.8606 370.296 60.6062C370.296 60.6062 378.288 72.1946 389.077 67.3994C389.077 67.3994 382.417 50.2166 369.364 50.8826C356.177 51.5486 351.115 55.2782 348.318 63.6698C345.521 72.0614 349.117 79.121 352.58 84.7154Z" fill="#00492B"/>
<path d="M316.217 168.232L344.455 140.526L358.574 142.524L384.282 173.56L381.618 182.884L352.447 207.926L316.217 168.232Z" fill="#FFD055"/>
<path d="M316.217 168.232L291.575 174.226L289.71 177.023L339.66 228.705L342.99 226.84L352.447 207.926L316.217 168.232Z" fill="#FFD055"/>
<path d="M291.575 174.226L342.99 226.84L339.66 228.704L289.71 177.023L291.575 174.226Z" fill="#FFB744"/>
<path d="M344.455 140.526L381.618 182.884L384.282 173.56L358.574 142.524L344.455 140.526Z" fill="#FFB744"/>
<mask id="mask14_60_7" style="mask-type:luminance" maskUnits="userSpaceOnUse" x="376" y="89" width="53" height="196">
<path d="M376.956 96.0374L384.282 107.626C384.282 107.626 382.684 116.55 382.151 121.479C381.618 126.407 382.417 129.471 386.413 134.932C390.409 140.393 396.803 144.389 397.202 155.178C397.469 165.967 393.872 189.277 394.405 208.591C394.938 227.905 391.342 254.945 393.739 272.394C393.739 272.394 386.68 277.589 383.882 279.187C381.085 280.786 378.954 285.048 386.946 284.382C394.938 283.716 399.866 284.249 403.862 284.382C407.858 284.649 410.922 283.05 409.99 274.525C409.057 266.001 409.99 255.478 413.32 242.025C416.65 228.571 417.582 216.583 418.514 206.727C419.447 196.87 425.574 184.615 427.439 178.222C429.304 171.828 428.371 163.836 422.51 157.043C422.51 157.043 420.646 147.186 420.113 137.995C419.447 128.805 416.383 100.167 393.739 99.9002L386.413 89.9102L376.956 96.0374Z" fill="white"/>
</mask>
<g mask="url(#mask14_60_7)">
<path d="M380.02 111.356C380.02 111.356 383.083 113.22 397.868 96.0376C397.868 96.0376 420.246 105.495 424.242 129.471C428.238 153.447 424.242 152.648 424.242 152.648C424.242 152.648 408.391 158.375 392.407 155.312L383.216 142.658L380.153 119.747V111.356H380.02Z" fill="#FF7918"/>
</g>
<mask id="mask15_60_7" style="mask-type:luminance" maskUnits="userSpaceOnUse" x="376" y="89" width="53" height="196">
<path d="M376.956 96.0374L384.282 107.626C384.282 107.626 382.684 116.55 382.151 121.479C381.618 126.407 382.417 129.471 386.413 134.932C390.409 140.393 396.803 144.389 397.202 155.178C397.469 165.967 393.872 189.277 394.405 208.591C394.938 227.905 391.342 254.945 393.739 272.394C393.739 272.394 386.68 277.589 383.882 279.187C381.085 280.786 378.954 285.048 386.946 284.382C394.938 283.716 399.866 284.249 403.862 284.382C407.858 284.649 410.922 283.05 409.99 274.525C409.057 266.001 409.99 255.478 413.32 242.025C416.65 228.571 417.582 216.583 418.514 206.727C419.447 196.87 425.574 184.615 427.439 178.222C429.304 171.828 428.371 163.836 422.51 157.043C422.51 157.043 420.646 147.186 420.113 137.995C419.447 128.805 416.383 100.167 393.739 99.9002L386.413 89.9102L376.956 96.0374Z" fill="white"/>
</mask>
<g mask="url(#mask15_60_7)">
<path d="M390.809 161.705C390.809 161.705 411.055 165.035 432.5 152.647L443.29 191.409L420.912 250.949L413.586 267.199C413.586 267.199 406.793 272.661 389.077 267.199L386.946 211.122L390.809 161.705Z" fill="#ACE5E0"/>
</g>
<mask id="mask16_60_7" style="mask-type:luminance" maskUnits="userSpaceOnUse" x="376" y="89" width="53" height="196">
<path d="M376.956 96.0374L384.282 107.626C384.282 107.626 382.684 116.55 382.151 121.479C381.618 126.407 382.417 129.471 386.413 134.932C390.409 140.393 396.803 144.389 397.202 155.178C397.469 165.967 393.872 189.277 394.405 208.591C394.938 227.905 391.342 254.945 393.739 272.394C393.739 272.394 386.68 277.589 383.882 279.187C381.085 280.786 378.954 285.048 386.946 284.382C394.938 283.716 399.866 284.249 403.862 284.382C407.858 284.649 410.922 283.05 409.99 274.525C409.057 266.001 409.99 255.478 413.32 242.025C416.65 228.571 417.582 216.583 418.514 206.727C419.447 196.87 425.574 184.615 427.439 178.222C429.304 171.828 428.371 163.836 422.51 157.043C422.51 157.043 420.646 147.186 420.113 137.995C419.447 128.805 416.383 100.167 393.739 99.9002L386.413 89.9102L376.956 96.0374Z" fill="white"/>
</mask>
<g mask="url(#mask16_60_7)">
<path d="M415.051 287.046C415.051 286.114 414.385 272.394 414.385 272.394C414.385 272.394 406.66 270.796 403.33 272.394C400 273.992 389.344 274.259 386.813 271.994L376.956 280.652L378.155 289.843L402.93 292.507L415.051 287.046Z" fill="#FED358"/>
</g>
<mask id="mask17_60_7" style="mask-type:luminance" maskUnits="userSpaceOnUse" x="376" y="89" width="53" height="196">
<path d="M376.956 96.0374L384.282 107.626C384.282 107.626 382.684 116.55 382.151 121.479C381.618 126.407 382.417 129.471 386.413 134.932C390.409 140.393 396.803 144.389 397.202 155.178C397.469 165.967 393.872 189.277 394.405 208.591C394.938 227.905 391.342 254.945 393.739 272.394C393.739 272.394 386.68 277.589 383.882 279.187C381.085 280.786 378.954 285.048 386.946 284.382C394.938 283.716 399.866 284.249 403.862 284.382C407.858 284.649 410.922 283.05 409.99 274.525C409.057 266.001 409.99 255.478 413.32 242.025C416.65 228.571 417.582 216.583 418.514 206.727C419.447 196.87 425.574 184.615 427.439 178.222C429.304 171.828 428.371 163.836 422.51 157.043C422.51 157.043 420.646 147.186 420.113 137.995C419.447 128.805 416.383 100.167 393.739 99.9002L386.413 89.9102L376.956 96.0374Z" fill="white"/>
</mask>
<g mask="url(#mask17_60_7)">
<path opacity="0.5" d="M386.413 134.932C386.413 134.932 398.534 135.864 403.196 148.651C407.858 161.438 400.133 192.341 399.866 204.062C399.6 215.784 399.067 267.998 393.739 272.261L384.282 261.072L386.413 134.932Z" fill="black"/>
</g>
<path d="M398.135 102.164C407.192 102.564 406.393 112.021 405.194 121.745C403.996 131.602 399.733 142.924 393.872 149.051C388.012 155.178 385.348 163.969 376.956 168.098C368.698 172.361 356.71 175.424 356.71 175.424C356.71 175.424 355.511 178.488 351.515 180.353C351.515 180.353 345.521 184.082 343.789 182.484C342.058 180.886 346.187 179.287 346.187 179.287C346.187 179.287 340.06 182.617 338.861 180.886C337.662 179.021 341.791 177.955 341.791 177.955C341.791 177.955 336.73 178.621 336.33 177.023C335.93 175.424 341.258 175.025 341.258 175.025C341.258 175.025 337.529 175.424 337.396 173.293C337.262 171.162 342.191 171.162 347.519 168.764C347.519 168.764 345.92 166.5 344.322 166.367C342.59 166.234 342.324 163.969 345.521 163.436C348.718 163.037 352.714 167.566 352.714 167.566C352.714 167.566 358.708 163.836 362.171 161.305C365.634 158.641 374.159 147.452 378.288 146.786C378.288 146.786 383.35 136.53 384.016 131.202C384.682 126.007 383.35 101.632 398.135 102.164Z" fill="#F29D2C"/>
<path d="M306.36 208.059C307.463 208.059 308.358 207.164 308.358 206.061C308.358 204.957 307.463 204.062 306.36 204.062C305.257 204.062 304.362 204.957 304.362 206.061C304.362 207.164 305.257 208.059 306.36 208.059Z" fill="#92EC5F"/>
<path d="M301.698 224.176C302.801 224.176 303.696 223.281 303.696 222.178C303.696 221.074 302.801 220.18 301.698 220.18C300.595 220.18 299.7 221.074 299.7 222.178C299.7 223.281 300.595 224.176 301.698 224.176Z" fill="#92EC5F"/>
<path d="M293.04 226.706C294.143 226.706 295.038 225.812 295.038 224.708C295.038 223.605 294.143 222.71 293.04 222.71C291.937 222.71 291.042 223.605 291.042 224.708C291.042 225.812 291.937 226.706 293.04 226.706Z" fill="#92EC5F"/>
<path d="M283.716 223.909C284.452 223.909 285.048 223.313 285.048 222.577C285.048 221.841 284.452 221.245 283.716 221.245C282.98 221.245 282.384 221.841 282.384 222.577C282.384 223.313 282.98 223.909 283.716 223.909Z" fill="#92EC5F"/>
<path d="M306.36 230.969C307.096 230.969 307.692 230.372 307.692 229.637C307.692 228.901 307.096 228.305 306.36 228.305C305.624 228.305 305.028 228.901 305.028 229.637C305.028 230.372 305.624 230.969 306.36 230.969Z" fill="#92EC5F"/>
<mask id="mask18_60_7" style="mask-type:luminance" maskUnits="userSpaceOnUse" x="347" y="50" width="43" height="35">
<path d="M352.58 84.7154C352.58 84.7154 352.714 84.5822 352.98 84.449C354.578 83.2502 360.306 78.455 361.372 71.795C361.372 71.795 362.304 74.8586 361.372 78.9878C361.372 78.9878 370.962 72.8606 370.296 60.6062C370.296 60.6062 378.288 72.1946 389.077 67.3994C389.077 67.3994 382.417 50.2166 369.364 50.8826C356.177 51.5486 351.115 55.2782 348.318 63.6698C345.521 72.0614 349.117 79.121 352.58 84.7154Z" fill="white"/>
</mask>
<g mask="url(#mask18_60_7)">
<path d="M364.435 48.3521C364.435 48.3521 372.294 64.3361 357.908 83.5169" stroke="#095B38" stroke-miterlimit="10"/>
</g>
<mask id="mask19_60_7" style="mask-type:luminance" maskUnits="userSpaceOnUse" x="347" y="50" width="43" height="35">
<path d="M352.58 84.7154C352.58 84.7154 352.714 84.5822 352.98 84.449C354.578 83.2502 360.306 78.455 361.372 71.795C361.372 71.795 362.304 74.8586 361.372 78.9878C361.372 78.9878 370.962 72.8606 370.296 60.6062C370.296 60.6062 378.288 72.1946 389.077 67.3994C389.077 67.3994 382.417 50.2166 369.364 50.8826C356.177 51.5486 351.115 55.2782 348.318 63.6698C345.521 72.0614 349.117 79.121 352.58 84.7154Z" fill="white"/>
</mask>
<g mask="url(#mask19_60_7)">
<path d="M360.173 48.3521C360.173 48.3521 364.835 71.3957 348.052 84.8489" stroke="#095B38" stroke-miterlimit="10"/>
</g>
<mask id="mask20_60_7" style="mask-type:luminance" maskUnits="userSpaceOnUse" x="347" y="50" width="43" height="35">
<path d="M352.58 84.7154C352.58 84.7154 352.714 84.5822 352.98 84.449C354.578 83.2502 360.306 78.455 361.372 71.795C361.372 71.795 362.304 74.8586 361.372 78.9878C361.372 78.9878 370.962 72.8606 370.296 60.6062C370.296 60.6062 378.288 72.1946 389.077 67.3994C389.077 67.3994 382.417 50.2166 369.364 50.8826C356.177 51.5486 351.115 55.2782 348.318 63.6698C345.521 72.0614 349.117 79.121 352.58 84.7154Z" fill="white"/>
</mask>
<g mask="url(#mask20_60_7)">
<path d="M368.032 46.6201C368.032 46.6201 375.358 69.1309 392.407 65.9341" stroke="#095B38" stroke-miterlimit="10"/>
</g>
<path d="M356.71 80.8525C356.443 82.0513 356.443 83.1169 356.576 84.0493C356.576 84.5821 356.71 85.1149 356.843 85.5145C356.976 86.0473 357.109 86.5801 357.242 87.2461C356.177 86.5801 355.378 85.5145 355.244 84.1825C355.111 82.8505 355.644 81.5185 356.71 80.8525Z" fill="#00492B"/>
<path d="M378.688 98.9675C378.688 98.9675 384.682 97.9019 388.145 92.1743C388.145 92.1743 388.544 100.033 382.817 105.361L378.688 98.9675Z" fill="#CC750D"/>
<path d="M141.458 446.887C147.186 440.36 158.908 451.282 162.371 458.342C165.834 465.401 175.824 484.982 175.824 484.982C175.824 484.982 181.552 486.314 186.347 489.777C191.142 493.24 199.001 504.562 202.331 506.161C202.331 506.161 207.259 506.161 209.524 506.161C211.788 506.161 220.446 509.624 219.514 511.888C218.581 514.153 209.79 513.487 209.79 513.487C209.79 513.487 212.188 522.278 207.259 524.143C202.331 526.007 194.738 518.282 192.474 512.821C192.474 512.821 188.611 510.29 184.482 507.359C180.353 504.429 174.092 500.699 169.297 493.906C169.297 493.906 157.176 481.385 152.248 479.121C147.053 476.857 129.337 460.606 141.458 446.887Z" fill="#CC750D"/>
<path d="M193.939 505.627L259.474 527.339L255.478 543.057L217.382 537.729L216.45 520.945L192.341 510.423L193.939 505.627Z" fill="#006657"/>
<path d="M211.788 517.749C211.788 517.749 211.388 514.019 214.052 514.152C216.716 514.286 215.651 521.079 214.052 523.077C212.454 525.075 210.989 523.077 210.989 523.077C210.989 523.077 209.79 525.208 207.259 524.142C207.259 524.142 204.862 526.94 202.198 524.409C202.198 524.409 198.734 526.14 197.269 522.544C197.269 522.544 194.872 512.021 199.134 511.222C203.263 510.423 202.331 519.081 202.331 519.081C202.331 519.081 201.798 512.154 203.796 512.021C205.794 511.888 207.925 514.286 207.259 520.679C207.259 520.679 206.726 511.622 208.591 511.888C210.456 512.154 211.255 512.82 211.788 517.749Z" fill="#CC750D"/>
<mask id="mask21_60_7" style="mask-type:luminance" maskUnits="userSpaceOnUse" x="137" y="444" width="83" height="81">
<path d="M141.458 446.887C147.186 440.36 158.908 451.282 162.371 458.342C165.834 465.401 175.824 484.982 175.824 484.982C175.824 484.982 181.552 486.314 186.347 489.777C191.142 493.24 199.001 504.562 202.331 506.161C202.331 506.161 207.259 506.161 209.524 506.161C211.788 506.161 220.446 509.624 219.514 511.888C218.581 514.153 209.79 513.487 209.79 513.487C209.79 513.487 212.188 522.278 207.259 524.143C202.331 526.007 194.738 518.282 192.474 512.821C192.474 512.821 188.611 510.29 184.482 507.359C180.353 504.429 174.092 500.699 169.297 493.906C169.297 493.906 157.176 481.385 152.248 479.121C147.053 476.857 129.337 460.606 141.458 446.887Z" fill="white"/>
</mask>
<g mask="url(#mask21_60_7)">
<path d="M144.256 486.847C144.256 486.847 162.371 482.052 173.693 465.668L160.24 440.227L135.065 437.296L137.196 477.256L144.256 486.847Z" fill="#EC6100"/>
</g>
<path d="M138.928 516.15C138.928 516.15 161.438 515.751 167.299 515.751C173.16 515.751 194.339 512.021 202.064 518.548C209.79 525.075 200.066 568.764 195.538 579.021C195.538 579.021 202.73 581.019 202.73 584.482C202.73 587.945 180.486 584.482 178.488 584.482C176.49 584.482 176.49 580.086 177.822 571.562C179.154 563.037 175.824 549.317 179.82 541.458C179.82 541.458 161.438 545.854 148.784 543.456C136.13 541.059 112.954 519.214 138.928 516.15Z" fill="#F29D2C"/>
<mask id="mask22_60_7" style="mask-type:luminance" maskUnits="userSpaceOnUse" x="127" y="514" width="78" height="73">
<path d="M138.928 516.15C138.928 516.15 161.438 515.751 167.299 515.751C173.16 515.751 194.339 512.021 202.064 518.548C209.79 525.075 200.066 568.764 195.538 579.021C195.538 579.021 202.73 581.019 202.73 584.482C202.73 587.945 180.486 584.482 178.488 584.482C176.49 584.482 176.49 580.086 177.822 571.562C179.154 563.037 175.824 549.317 179.82 541.458C179.82 541.458 161.438 545.854 148.784 543.456C136.13 541.059 112.954 519.214 138.928 516.15Z" fill="white"/>
</mask>
<g mask="url(#mask22_60_7)">
<path d="M171.162 568.365L174.758 592.074L199.134 596.603L219.514 580.619L213.253 568.365H171.162Z" fill="#30C689"/>
</g>
<mask id="mask23_60_7" style="mask-type:luminance" maskUnits="userSpaceOnUse" x="127" y="514" width="78" height="73">
<path d="M138.928 516.15C138.928 516.15 161.438 515.751 167.299 515.751C173.16 515.751 194.339 512.021 202.064 518.548C209.79 525.075 200.066 568.764 195.538 579.021C195.538 579.021 202.73 581.019 202.73 584.482C202.73 587.945 180.486 584.482 178.488 584.482C176.49 584.482 176.49 580.086 177.822 571.562C179.154 563.037 175.824 549.317 179.82 541.458C179.82 541.458 161.438 545.854 148.784 543.456C136.13 541.059 112.954 519.214 138.928 516.15Z" fill="white"/>
</mask>
<g mask="url(#mask23_60_7)">
<path d="M171.162 570.363C171.162 570.363 187.546 575.824 206.46 575.158L216.85 503.763L153.979 500.966C153.979 500.966 120.946 513.087 122.144 514.819C123.21 516.55 132.934 554.113 132.934 554.113L171.162 570.363Z" fill="#ACE5E0"/>
</g>
<path d="M166.234 386.68C176.623 391.076 175.824 402.131 173.959 409.457C172.094 416.783 173.293 440.36 151.715 436.763C129.47 433.167 137.196 409.457 138.928 401.199C140.659 393.074 146.653 378.555 166.234 386.68Z" fill="#F29D2C"/>
<path d="M142.924 427.972L139.86 437.03C139.86 437.03 123.476 437.429 115.218 448.751C106.96 460.073 104.962 475.391 108.691 491.109C112.421 506.827 110.822 513.353 106.826 521.878C102.83 530.403 105.228 539.993 113.753 545.721C122.544 551.582 129.604 570.097 129.604 570.097C129.604 570.097 119.081 564.236 111.488 562.904C104.029 561.572 97.1028 560.506 93.1068 558.508C89.1108 556.51 85.914 565.035 85.248 570.097C84.582 575.158 81.1188 588.878 85.248 589.544C89.3772 590.21 94.8384 579.287 94.8384 579.287C94.8384 579.287 107.226 584.749 113.087 587.546C119.081 590.343 142.524 595.138 153.846 589.677C165.168 584.216 159.707 565.435 156.91 551.049C154.112 536.663 150.116 518.282 150.116 518.282C150.116 518.282 150.516 502.564 152.514 493.64C154.512 484.715 157.576 459.541 151.182 443.823L155.578 432.901L142.924 427.972Z" fill="#F29D2C"/>
<path d="M150.916 395.072C150.916 395.072 166.367 403.064 179.82 398.934C193.273 394.805 185.148 387.346 181.152 390.276C181.152 390.276 181.152 380.553 160.772 377.756C140.26 374.958 134.399 384.416 131.868 395.338C129.337 406.26 125.075 415.185 125.741 420.113C126.407 425.042 133.733 428.372 136.53 422.91C139.327 417.449 141.458 404.662 141.458 404.662C141.458 404.662 142.657 407.459 141.858 414.918L145.721 415.584L150.916 395.072Z" fill="#00492B"/>
<path d="M183.416 390.676C183.416 390.676 181.951 379.221 165.834 377.223C149.717 375.225 142.258 381.352 142.258 381.352" stroke="#00492B" stroke-miterlimit="10"/>
<path d="M141.325 404.662C141.325 404.662 136.13 401.732 134.532 407.193C132.934 412.787 141.059 412.654 141.059 412.654L141.325 404.662Z" fill="#F29D2C"/>
<mask id="mask24_60_7" style="mask-type:luminance" maskUnits="userSpaceOnUse" x="83" y="427" width="78" height="166">
<path d="M142.924 427.972L139.86 437.03C139.86 437.03 123.476 437.429 115.218 448.751C106.96 460.073 104.962 475.391 108.691 491.109C112.421 506.827 110.822 513.353 106.826 521.878C102.83 530.403 105.228 539.993 113.753 545.721C122.544 551.582 129.604 570.097 129.604 570.097C129.604 570.097 119.081 564.236 111.488 562.904C104.029 561.572 97.1028 560.506 93.1068 558.508C89.1108 556.51 85.914 565.035 85.248 570.097C84.582 575.158 81.1188 588.878 85.248 589.544C89.3772 590.21 94.8384 579.287 94.8384 579.287C94.8384 579.287 107.226 584.749 113.087 587.546C119.081 590.343 142.524 595.138 153.846 589.677C165.168 584.216 159.707 565.435 156.91 551.049C154.112 536.663 150.116 518.282 150.116 518.282C150.116 518.282 150.516 502.564 152.514 493.64C154.512 484.715 157.576 459.541 151.182 443.823L155.578 432.901L142.924 427.972Z" fill="white"/>
</mask>
<g mask="url(#mask24_60_7)">
<path d="M103.23 554.646L97.6356 592.075L78.3216 598.868L73.6596 569.697L88.4448 550.25L103.23 554.646Z" fill="#30C689"/>
</g>
<mask id="mask25_60_7" style="mask-type:luminance" maskUnits="userSpaceOnUse" x="83" y="427" width="78" height="166">
<path d="M142.924 427.972L139.86 437.03C139.86 437.03 123.476 437.429 115.218 448.751C106.96 460.073 104.962 475.391 108.691 491.109C112.421 506.827 110.822 513.353 106.826 521.878C102.83 530.403 105.228 539.993 113.753 545.721C122.544 551.582 129.604 570.097 129.604 570.097C129.604 570.097 119.081 564.236 111.488 562.904C104.029 561.572 97.1028 560.506 93.1068 558.508C89.1108 556.51 85.914 565.035 85.248 570.097C84.582 575.158 81.1188 588.878 85.248 589.544C89.3772 590.21 94.8384 579.287 94.8384 579.287C94.8384 579.287 107.226 584.749 113.087 587.546C119.081 590.343 142.524 595.138 153.846 589.677C165.168 584.216 159.707 565.435 156.91 551.049C154.112 536.663 150.116 518.282 150.116 518.282C150.116 518.282 150.516 502.564 152.514 493.64C154.512 484.715 157.576 459.541 151.182 443.823L155.578 432.901L142.924 427.972Z" fill="white"/>
</mask>
<g mask="url(#mask25_60_7)">
<path d="M104.029 510.023C104.029 510.023 125.874 523.477 155.578 514.685C155.578 514.685 175.691 581.019 156.51 594.605C137.329 608.192 94.8384 579.287 94.8384 579.287C94.8384 579.287 92.8404 563.303 103.363 557.043L94.7052 543.457L104.029 510.023Z" fill="#ACE5E0"/>
</g>
<mask id="mask26_60_7" style="mask-type:luminance" maskUnits="userSpaceOnUse" x="83" y="427" width="78" height="166">
<path d="M142.924 427.972L139.86 437.03C139.86 437.03 123.476 437.429 115.218 448.751C106.96 460.073 104.962 475.391 108.691 491.109C112.421 506.827 110.822 513.353 106.826 521.878C102.83 530.403 105.228 539.993 113.753 545.721C122.544 551.582 129.604 570.097 129.604 570.097C129.604 570.097 119.081 564.236 111.488 562.904C104.029 561.572 97.1028 560.506 93.1068 558.508C89.1108 556.51 85.914 565.035 85.248 570.097C84.582 575.158 81.1188 588.878 85.248 589.544C89.3772 590.21 94.8384 579.287 94.8384 579.287C94.8384 579.287 107.226 584.749 113.087 587.546C119.081 590.343 142.524 595.138 153.846 589.677C165.168 584.216 159.707 565.435 156.91 551.049C154.112 536.663 150.116 518.282 150.116 518.282C150.116 518.282 150.516 502.564 152.514 493.64C154.512 484.715 157.576 459.541 151.182 443.823L155.578 432.901L142.924 427.972Z" fill="white"/>
</mask>
<g mask="url(#mask26_60_7)">
<path d="M104.029 510.024C104.029 510.024 115.884 521.745 134.399 521.079C152.914 520.413 156.377 510.024 156.377 510.024V447.553C156.377 447.553 144.922 450.084 132.268 434.1C132.401 434.1 84.1824 437.03 104.029 510.024Z" fill="#FF7918"/>
</g>
<mask id="mask27_60_7" style="mask-type:luminance" maskUnits="userSpaceOnUse" x="83" y="427" width="78" height="166">
<path d="M142.924 427.972L139.86 437.03C139.86 437.03 123.476 437.429 115.218 448.751C106.96 460.073 104.962 475.391 108.691 491.109C112.421 506.827 110.822 513.353 106.826 521.878C102.83 530.403 105.228 539.993 113.753 545.721C122.544 551.582 129.604 570.097 129.604 570.097C129.604 570.097 119.081 564.236 111.488 562.904C104.029 561.572 97.1028 560.506 93.1068 558.508C89.1108 556.51 85.914 565.035 85.248 570.097C84.582 575.158 81.1188 588.878 85.248 589.544C89.3772 590.21 94.8384 579.287 94.8384 579.287C94.8384 579.287 107.226 584.749 113.087 587.546C119.081 590.343 142.524 595.138 153.846 589.677C165.168 584.216 159.707 565.435 156.91 551.049C154.112 536.663 150.116 518.282 150.116 518.282C150.116 518.282 150.516 502.564 152.514 493.64C154.512 484.715 157.576 459.541 151.182 443.823L155.578 432.901L142.924 427.972Z" fill="white"/>
</mask>
<g mask="url(#mask27_60_7)">
<path opacity="0.5" d="M110.156 450.616C110.156 450.616 110.156 482.451 115.884 499.234C121.612 516.017 114.152 526.007 117.216 535.465C119.214 541.725 132.8 554.512 129.604 570.097L98.7012 549.983L94.0392 514.153L96.3036 450.749H110.156V450.616Z" fill="black"/>
</g>
<path d="M174.758 522.943C174.758 522.943 192.208 506.027 196.337 502.297C200.466 498.701 204.728 502.83 199.267 507.759C193.806 512.687 178.888 526.939 178.888 526.939C178.888 526.939 176.224 526.806 174.758 522.943Z" fill="#148C90"/>
<path d="M190.345 536.994L165.583 511.837L162.545 514.827L187.307 539.984L190.345 536.994Z" fill="#148C90"/>
<path d="M190.419 536.955L187.055 533.538L184.018 536.528L187.381 539.945L190.419 536.955Z" fill="#64CDD0"/>
<path d="M187.279 539.993L162.504 514.818C162.504 514.818 153.18 524.009 146.92 526.806C146.92 526.806 148.385 528.804 151.182 532.001C153.047 531.069 155.578 529.87 158.242 528.538C158.242 528.538 155.578 531.868 153.18 534.132C153.846 534.798 154.512 535.598 155.178 536.264C156.776 536.397 159.174 536.264 162.238 535.598C162.238 535.598 160.106 537.596 157.442 538.528C159.307 542.79 163.303 546.52 167.832 549.85C169.43 548.252 173.293 544.389 175.424 542.391C175.424 542.391 171.162 547.186 170.23 551.182C171.562 551.981 173.826 553.846 175.158 554.645L187.279 539.993Z" fill="#FFD055"/>
<path d="M128.405 444.489C135.198 439.56 145.188 447.685 148.385 457.409C151.582 467.133 150.649 475.125 158.641 482.184C166.633 489.244 180.086 502.031 183.017 506.959C183.017 506.959 188.078 503.763 190.742 504.029C193.406 504.295 194.339 507.625 192.74 509.89C192.74 509.89 197.136 512.687 196.87 515.884C196.603 519.081 193.007 518.814 193.007 518.814C193.007 518.814 193.007 520.812 190.476 521.745C190.476 521.745 189.144 523.609 187.546 523.743C187.546 523.743 186.214 525.075 184.615 525.075C183.017 525.075 180.353 524.808 176.357 518.681C176.357 518.681 171.295 517.216 166.766 514.419C162.238 511.621 149.45 500.033 144.256 497.103C139.061 494.172 136.796 479.387 131.468 473.793C126.407 468.465 113.886 455.145 128.405 444.489Z" fill="#F29D2C"/>
<mask id="mask28_60_7" style="mask-type:luminance" maskUnits="userSpaceOnUse" x="121" y="443" width="76" height="83">
<path d="M128.405 444.489C135.198 439.56 145.188 447.685 148.385 457.409C151.582 467.133 150.649 475.125 158.641 482.184C166.633 489.244 180.086 502.031 183.017 506.959C183.017 506.959 188.078 503.763 190.742 504.029C193.406 504.295 194.339 507.625 192.74 509.89C192.74 509.89 197.136 512.687 196.87 515.884C196.603 519.081 193.007 518.814 193.007 518.814C193.007 518.814 193.007 520.812 190.476 521.745C190.476 521.745 189.144 523.609 187.546 523.743C187.546 523.743 186.214 525.075 184.615 525.075C183.017 525.075 180.353 524.808 176.357 518.681C176.357 518.681 171.295 517.216 166.766 514.419C162.238 511.621 149.45 500.033 144.256 497.103C139.061 494.172 136.796 479.387 131.468 473.793C126.407 468.465 113.886 455.145 128.405 444.489Z" fill="white"/>
</mask>
<g mask="url(#mask28_60_7)">
<path d="M127.073 484.182C127.073 484.182 143.856 482.317 164.369 464.335L145.721 436.097L111.355 443.023L115.618 476.19L127.073 484.182Z" fill="#FF7918"/>
</g>
<path d="M224.842 515.751L228.704 532.534L256.543 538.795L259.474 527.339L224.842 515.751Z" fill="#C9E849"/>
<path d="M233.366 526.007C234.249 526.007 234.965 525.292 234.965 524.409C234.965 523.526 234.249 522.811 233.366 522.811C232.484 522.811 231.768 523.526 231.768 524.409C231.768 525.292 232.484 526.007 233.366 526.007Z" fill="#005647"/>
<path d="M245.221 533.067C245.81 533.067 246.287 532.59 246.287 532.001C246.287 531.413 245.81 530.936 245.221 530.936C244.633 530.936 244.156 531.413 244.156 532.001C244.156 532.59 244.633 533.067 245.221 533.067Z" fill="#005647"/>
<path d="M230.17 532.001C230.758 532.001 231.235 531.524 231.235 530.936C231.235 530.347 230.758 529.87 230.17 529.87C229.581 529.87 229.104 530.347 229.104 530.936C229.104 531.524 229.581 532.001 230.17 532.001Z" fill="#005647"/>
<path d="M229.104 527.339C229.693 527.339 230.17 526.862 230.17 526.274C230.17 525.685 229.693 525.208 229.104 525.208C228.515 525.208 228.038 525.685 228.038 526.274C228.038 526.862 228.515 527.339 229.104 527.339Z" fill="#005647"/>
<path d="M237.762 532.001C238.351 532.001 238.828 531.524 238.828 530.936C238.828 530.347 238.351 529.87 237.762 529.87C237.174 529.87 236.696 530.347 236.696 530.936C236.696 531.524 237.174 532.001 237.762 532.001Z" fill="#005647"/>
<path d="M229.104 520.546C229.693 520.546 230.17 520.069 230.17 519.48C230.17 518.892 229.693 518.415 229.104 518.415C228.515 518.415 228.038 518.892 228.038 519.48C228.038 520.069 228.515 520.546 229.104 520.546Z" fill="#005647"/>
<path d="M233.366 530.403C234.249 530.403 234.965 529.687 234.965 528.804C234.965 527.922 234.249 527.206 233.366 527.206C232.484 527.206 231.768 527.922 231.768 528.804C231.768 529.687 232.484 530.403 233.366 530.403Z" fill="#005647"/>
<path d="M237.762 526.007C238.645 526.007 239.36 525.292 239.36 524.409C239.36 523.526 238.645 522.811 237.762 522.811C236.879 522.811 236.164 523.526 236.164 524.409C236.164 525.292 236.879 526.007 237.762 526.007Z" fill="#005647"/>
<path d="M240.826 530.403C241.708 530.403 242.424 529.687 242.424 528.804C242.424 527.922 241.708 527.206 240.826 527.206C239.943 527.206 239.227 527.922 239.227 528.804C239.227 529.687 239.943 530.403 240.826 530.403Z" fill="#005647"/>
<mask id="mask29_60_7" style="mask-type:luminance" maskUnits="userSpaceOnUse" x="125" y="377" width="63" height="49">
<path d="M150.916 395.072C150.916 395.072 166.367 403.064 179.82 398.934C193.273 394.805 185.148 387.346 181.152 390.276C181.152 390.276 181.152 380.553 160.772 377.756C140.26 374.958 134.399 384.416 131.868 395.338C129.337 406.26 125.075 415.185 125.741 420.113C126.407 425.042 133.733 428.372 136.53 422.91C139.327 417.449 141.458 404.662 141.458 404.662C141.458 404.662 142.657 407.459 141.858 414.918L145.721 415.584L150.916 395.072Z" fill="white"/>
</mask>
<g mask="url(#mask29_60_7)">
<path d="M134.399 381.618C134.399 381.618 140.26 391.608 153.979 399.201" stroke="#095B38" stroke-miterlimit="10"/>
</g>
<mask id="mask30_60_7" style="mask-type:luminance" maskUnits="userSpaceOnUse" x="125" y="377" width="63" height="49">
<path d="M150.916 395.072C150.916 395.072 166.367 403.064 179.82 398.934C193.273 394.805 185.148 387.346 181.152 390.276C181.152 390.276 181.152 380.553 160.772 377.756C140.26 374.958 134.399 384.416 131.868 395.338C129.337 406.26 125.075 415.185 125.741 420.113C126.407 425.042 133.733 428.372 136.53 422.91C139.327 417.449 141.458 404.662 141.458 404.662C141.458 404.662 142.657 407.459 141.858 414.918L145.721 415.584L150.916 395.072Z" fill="white"/>
</mask>
<g mask="url(#mask30_60_7)">
<path d="M131.602 387.612C131.602 387.612 137.729 399.334 152.914 401.598" stroke="#095B38" stroke-miterlimit="10"/>
</g>
<mask id="mask31_60_7" style="mask-type:luminance" maskUnits="userSpaceOnUse" x="125" y="377" width="63" height="49">
<path d="M150.916 395.072C150.916 395.072 166.367 403.064 179.82 398.934C193.273 394.805 185.148 387.346 181.152 390.276C181.152 390.276 181.152 380.553 160.772 377.756C140.26 374.958 134.399 384.416 131.868 395.338C129.337 406.26 125.075 415.185 125.741 420.113C126.407 425.042 133.733 428.372 136.53 422.91C139.327 417.449 141.458 404.662 141.458 404.662C141.458 404.662 142.657 407.459 141.858 414.918L145.721 415.584L150.916 395.072Z" fill="white"/>
</mask>
<g mask="url(#mask31_60_7)">
<path d="M188.878 390.41C188.878 390.41 158.908 408.525 139.327 377.356" stroke="#095B38" stroke-miterlimit="10"/>
</g>
<path d="M141.325 432.767C141.325 432.767 146.387 436.63 153.713 437.163C153.713 437.163 148.518 441.159 139.727 437.163L141.325 432.767Z" fill="#CC750D"/>
</svg>
