<svg width="1115" height="79" viewBox="0 0 1115 79" fill="none" xmlns="http://www.w3.org/2000/svg">
<path fill-rule="evenodd" clip-rule="evenodd" d="M425.596 22.5C426.301 22.9692 426.582 23.3284 427.528 24.9678C427.88 25.578 428.532 26.7026 428.977 27.467C429.422 28.2314 429.92 29.0917 430.083 29.3787L430.379 29.9007L429.415 30.4541C428.217 31.1415 428.124 31.2096 428.257 31.297C428.312 31.3331 428.725 31.3852 429.174 31.4127C429.624 31.4402 430.537 31.5092 431.203 31.5659C434.509 31.8475 435.542 31.9039 435.656 31.8092C435.718 31.7584 435.876 31.4847 436.009 31.2011C436.142 30.9175 436.721 29.698 437.296 28.4911C437.871 27.2841 438.456 26.0547 438.597 25.7591C438.737 25.4633 438.824 25.1949 438.789 25.1626C438.755 25.1302 438.238 25.384 437.64 25.7267C437.043 26.0694 436.542 26.3377 436.527 26.3232C436.513 26.3086 436.067 25.5395 435.537 24.6142C434.844 23.4063 434.478 22.8442 434.238 22.6209L433.905 22.3101H429.608H425.31L425.596 22.5ZM422.468 22.6676C421.869 22.8608 421.337 23.1518 421.017 23.4614C420.861 23.6127 420.515 24.115 420.25 24.5777C419.984 25.0403 419.304 26.2173 418.738 27.1931L417.71 28.9673L418.236 29.2699C418.525 29.4363 419.257 29.8598 419.862 30.2109C420.468 30.5621 421.404 31.1006 421.943 31.4075L422.922 31.9656H423.561H424.2L425.793 29.1889C426.669 27.6617 427.386 26.375 427.386 26.3295C427.386 26.1835 426.136 24.1023 425.843 23.761C424.993 22.7694 423.576 22.3104 422.468 22.6676ZM414.761 38.1114C413.727 38.2131 412.083 38.3311 411.128 38.3724C409.396 38.4471 408.265 38.5729 408.265 38.6911C408.265 38.7497 408.701 39.0478 409.245 39.361C409.785 39.6713 410.255 39.9544 410.291 39.99C410.329 40.0278 409.918 40.8039 409.31 41.8438L408.265 43.6327V44.1448C408.265 44.7266 408.066 44.3255 410.099 47.8388C412.116 51.3232 412.417 51.8263 412.458 51.7888C412.479 51.7686 412.509 51.5492 412.523 51.3011C412.563 50.6217 412.825 49.9756 413.61 48.6284C414.001 47.9566 414.321 47.3839 414.321 47.3557C414.321 47.2849 416.376 43.7286 416.485 43.6099C416.557 43.532 416.775 43.6317 417.646 44.1402C418.236 44.4847 418.737 44.7665 418.758 44.7665C418.78 44.7665 418.798 44.7373 418.798 44.7015C418.798 44.5532 415.704 38.2122 415.59 38.1283C415.523 38.0781 415.432 38.0415 415.389 38.0472C415.346 38.0528 415.064 38.0817 414.761 38.1114ZM445.281 41.4243L445.26 43.353L445.049 43.6551C444.918 43.8436 444.699 44.0266 444.466 44.1424C444.115 44.317 444.027 44.3277 442.941 44.3277H441.79L441.738 44.6723C441.672 45.1103 441.442 45.7252 441.256 45.9607C441.177 46.0609 441.112 46.1624 441.112 46.1862C441.112 46.21 441.759 46.2295 442.549 46.2295C443.897 46.2295 444.021 46.2178 444.549 46.0417C445.92 45.5848 446.637 44.7499 446.86 43.3527C446.997 42.4877 446.884 42.0999 446.101 40.7426C445.729 40.0976 445.397 39.5533 445.364 39.5327C445.33 39.5122 445.293 40.3634 445.281 41.4243ZM435.497 45.8523C435.013 46.5203 434.517 47.1802 434.396 47.3186C434.275 47.4569 433.824 48.0832 433.393 48.7103C432.962 49.3373 432.508 49.9889 432.384 50.1581C432.259 50.3274 432.157 50.4946 432.157 50.5297C432.157 50.5649 432.77 51.4796 433.52 52.5627C434.269 53.6457 435.202 54.9997 435.594 55.5717C435.985 56.1436 436.346 56.6127 436.396 56.6141C436.466 56.616 436.488 56.3204 436.488 55.373V54.1295H438.493C440.697 54.1295 441.03 54.0826 441.457 53.7114C441.588 53.5967 442.115 52.7726 442.662 51.8253C445.902 46.2103 445.81 46.3758 445.709 46.3758C445.694 46.3758 445.536 46.4569 445.358 46.556C444.748 46.8958 444.173 46.9758 442.067 47.0137C440.997 47.0328 439.288 47.0634 438.27 47.0815L436.418 47.1144L436.398 45.876L436.378 44.6375L435.497 45.8523ZM414.266 48.9908C413.481 50.3548 413.358 50.6751 413.31 51.4868C413.247 52.546 413.507 53.3028 414.148 53.9294C414.594 54.3647 415.062 54.6764 415.513 54.8381C415.705 54.9068 415.862 54.9894 415.862 55.0218C415.862 55.054 417.266 55.0804 418.982 55.0804H422.101V51.4596V47.8388H418.515H414.929L414.266 48.9908Z" fill="#77BA44"/>
<path fill-rule="evenodd" clip-rule="evenodd" d="M413.574 32.0804C413.032 32.2474 412.338 32.7535 412.028 33.209C411.513 33.963 411.458 34.2805 411.458 36.4752V38.4092L411.696 38.3707C411.828 38.3496 412.431 38.2967 413.036 38.2532C413.642 38.2097 414.433 38.147 414.796 38.114C415.158 38.0809 415.501 38.0718 415.559 38.0937C415.616 38.1157 416.016 38.8608 416.447 39.7494C418.107 43.1716 418.82 44.6961 418.78 44.7361C418.757 44.7589 418.251 44.4932 417.656 44.1457C416.777 43.6326 416.557 43.5319 416.485 43.6098C416.379 43.7251 414.321 47.2837 414.321 47.3523C414.321 47.3787 418.837 47.3919 424.356 47.3818L434.392 47.3632L435.385 46.0022L436.378 44.6412L436.398 45.8778L436.418 47.1143L438.24 47.0925L440.061 47.0706L440.471 46.7996C441.098 46.384 441.609 45.5273 441.737 44.6749L441.79 44.3276H442.941C444.027 44.3276 444.115 44.3169 444.466 44.1423C444.699 44.0266 444.918 43.8435 445.049 43.655L445.26 43.353L445.323 39.872C445.395 35.8838 445.399 35.923 444.867 35.3946C444.438 34.9696 444.113 34.8914 442.771 34.8914H441.793L441.748 34.5081C441.686 33.9912 441.308 33.251 440.896 32.8398C440.709 32.6542 440.328 32.3898 440.047 32.2523L439.537 32.0021L426.727 31.9885C415.746 31.9768 413.868 31.9899 413.574 32.0804ZM426.615 32.5241C425.505 32.6993 424.215 33.2431 423.312 33.9174C421.665 35.1472 420.716 36.8328 420.414 39.0635C420.344 39.579 420.349 39.8234 420.445 40.465C420.803 42.8716 421.964 44.6577 423.945 45.8507C424.462 46.1618 425.412 46.5625 425.81 46.6368L426.065 46.6846L426.065 46.3655C426.066 45.999 426.238 44.9016 426.38 44.3641C426.465 44.0423 426.461 43.9383 426.342 43.4981C426.084 42.5367 425.564 41.7991 424.862 41.3981C424.406 41.1372 424.559 41.1149 425.096 41.3641C425.572 41.5847 426.304 42.2657 426.577 42.7402L426.779 43.0913L426.936 42.7037C427.292 41.8211 427.344 41.5435 427.345 40.5238C427.346 39.5764 427.336 39.5058 427.082 38.7857C426.792 37.9612 426.287 37.0702 425.789 36.5019C425.33 35.9802 425.516 36.0466 426.041 36.5921C426.596 37.1693 427.12 37.8774 427.398 38.4269L427.615 38.8536L427.804 38.4751C427.917 38.2494 428.112 38.0107 428.288 37.8838C428.645 37.6262 428.837 37.5995 428.516 37.8521C428.055 38.2143 427.813 39.1296 427.973 39.9014C428.023 40.1392 428.084 40.6195 428.11 40.969L428.157 41.6042L428.857 41.1921C429.96 40.542 430.445 40.1441 430.914 39.5021C431.089 39.2622 431.247 39.0801 431.264 39.0975C431.321 39.1539 430.703 40.1285 430.326 40.5787C430.124 40.8194 429.631 41.2832 429.231 41.6092C428.112 42.5212 427.861 42.8919 427.631 43.9688C427.499 44.588 427.436 46.742 427.546 46.8521C427.574 46.8794 427.953 46.8637 428.39 46.8172C430.036 46.6421 431.456 45.9748 432.659 44.8119C435.316 42.2434 435.588 38.1486 433.295 35.2189C432.345 34.004 431.116 33.1924 429.515 32.7225C429.011 32.5744 428.694 32.5345 427.863 32.5143C427.298 32.5006 426.737 32.505 426.615 32.5241ZM425.838 34.4619C425.62 34.767 425.57 35.3058 425.731 35.616C425.837 35.8206 425.87 35.8396 425.971 35.7561C426.128 35.6259 426.285 35.2367 426.285 34.9759C426.285 34.7766 426.1 34.2331 426.032 34.2331C426.015 34.2331 425.928 34.336 425.838 34.4619ZM424.083 34.6265C424.083 34.7467 424.323 35.1778 424.462 35.3071C424.643 35.4756 424.969 35.6229 425.161 35.6229C425.251 35.6229 425.266 35.5722 425.229 35.3887C425.171 35.1023 424.933 34.8329 424.618 34.6991C424.398 34.6059 424.083 34.5632 424.083 34.6265ZM426.907 35.1304C426.707 35.33 426.563 35.5565 426.508 35.7583C426.412 36.1151 426.468 36.5007 426.616 36.5007C426.76 36.5007 427.155 36.1497 427.279 35.9105C427.407 35.6623 427.426 34.8183 427.303 34.8183C427.257 34.8183 427.079 34.9587 426.907 35.1304ZM430.275 34.9255C429.844 35.2261 429.743 36.1462 430.165 35.9209C430.383 35.8048 430.542 35.4638 430.542 35.1145C430.542 34.7907 430.505 34.7645 430.275 34.9255ZM429.111 35.8109C428.965 35.9565 428.814 36.1569 428.776 36.2563C428.686 36.4929 428.688 37.0651 428.779 37.1212C428.899 37.1952 429.222 36.9327 429.372 36.6387C429.522 36.3467 429.569 35.6652 429.446 35.5889C429.408 35.5655 429.257 35.6653 429.111 35.8109ZM423.826 35.9313C423.537 36.0331 423.532 36.0389 423.646 36.1751C423.927 36.5126 424.662 36.6745 425.071 36.4889C425.3 36.385 425.302 36.3482 425.092 36.1526C424.772 35.8532 424.289 35.7688 423.826 35.9313ZM427.977 36.0459C427.443 36.3109 427.155 36.679 427.109 37.1562C427.069 37.5799 427.106 37.5984 427.577 37.3852C427.946 37.2183 428.169 36.9946 428.348 36.6104C428.484 36.3185 428.536 35.8402 428.432 35.8447C428.402 35.846 428.197 35.9365 427.977 36.0459ZM430.386 36.2914C430.065 36.3799 429.697 36.7363 429.76 36.8986C429.813 37.0365 430.463 37.0583 430.712 36.9307C431.113 36.7256 431.43 36.2813 431.176 36.2813C431.12 36.2813 430.98 36.267 430.864 36.2497C430.748 36.2322 430.533 36.251 430.386 36.2914ZM432.689 36.7198C432.325 36.941 431.984 37.5979 432.233 37.5979C432.576 37.5979 433.111 37.1249 433.205 36.7384C433.237 36.6063 433.213 36.5739 433.086 36.5741C432.999 36.5743 432.82 36.6398 432.689 36.7198ZM431.332 36.9945C431.185 37.1454 431.03 37.3614 430.987 37.4747C430.879 37.7606 430.89 38.2749 431.007 38.4348C431.1 38.5615 431.115 38.5619 431.297 38.4427C431.675 38.1961 431.893 37.4373 431.744 36.8847C431.685 36.6638 431.644 36.6746 431.332 36.9945ZM424.414 37.1105L424.047 37.2795L424.34 37.4695C424.942 37.8594 425.477 37.9003 425.98 37.5948C426.193 37.4652 426.212 37.4304 426.127 37.3274C425.965 37.1331 425.464 36.9429 425.111 36.9422C424.919 36.9418 424.626 37.0124 424.414 37.1105ZM429.882 37.3777C429.741 37.404 429.521 37.4799 429.394 37.5465C429.141 37.6785 428.816 38.1356 428.89 38.2549C428.984 38.4066 429.67 38.3382 430.003 38.144C430.257 37.9959 430.74 37.4638 430.669 37.4112C430.6 37.3606 430.091 37.3389 429.882 37.3777ZM432.561 37.9268C432.301 38.0182 431.864 38.4156 431.864 38.5611C431.864 38.5909 431.982 38.6376 432.128 38.6647C432.525 38.739 432.959 38.5773 433.289 38.2319L433.577 37.931L433.399 37.8814C433.118 37.803 432.877 37.816 432.561 37.9268ZM424.824 38.3325L424.501 38.4787L424.677 38.6672C425.131 39.1517 425.903 39.2996 426.597 39.0353C426.789 38.9622 426.946 38.8858 426.946 38.8654C426.946 38.7837 426.595 38.5308 426.248 38.3626C425.792 38.141 425.272 38.1301 424.824 38.3325ZM429.845 38.7975C429.404 38.9366 429.095 39.1142 428.842 39.3748C428.581 39.6439 428.344 40.1139 428.342 40.3694C428.34 40.5382 428.355 40.5429 428.768 40.5056C429.617 40.4288 430.26 39.8894 430.581 38.9841L430.683 38.6951L430.411 38.7C430.261 38.7028 430.007 38.7466 429.845 38.7975ZM431.827 39.0364C431.556 39.1789 431.35 39.3543 431.35 39.4417C431.35 39.5288 431.815 39.7193 432.027 39.7188C432.448 39.7178 433.185 39.3459 433.185 39.1347C433.185 38.9223 432.182 38.8497 431.827 39.0364ZM423.056 39.4449C423.057 39.7337 423.397 40.3511 423.669 40.5573C423.813 40.6669 424.064 40.7743 424.227 40.7961C424.494 40.8318 424.524 40.8201 424.524 40.6775C424.524 40.4544 424.326 40.0092 424.135 39.8019C423.973 39.6268 423.32 39.2824 423.147 39.2811C423.097 39.2806 423.056 39.3544 423.056 39.4449ZM424.597 39.6813C424.597 39.9144 425.06 40.678 425.353 40.9278C425.696 41.2201 426.187 41.4016 426.637 41.4016C426.954 41.4016 426.961 41.397 426.913 41.2005C426.822 40.8268 426.569 40.382 426.334 40.1847C426.007 39.9085 425.435 39.6629 424.982 39.6042C424.646 39.5604 424.597 39.5702 424.597 39.6813ZM431.46 40.1536C431.119 40.2359 430.763 40.4433 430.763 40.5593C430.763 40.6168 430.912 40.751 431.094 40.8573C431.349 41.0063 431.522 41.0505 431.852 41.0505C432.314 41.0505 433.065 40.7869 433.017 40.6417C432.977 40.5227 432.236 40.1743 431.937 40.1346C431.796 40.1158 431.581 40.1242 431.46 40.1536ZM422.052 40.6442C421.748 40.7102 421.707 40.8602 421.947 41.0303C422.435 41.3767 422.845 41.4374 423.367 41.2405C423.631 41.1411 423.622 41.0836 423.305 40.8426C423.099 40.6861 422.95 40.6383 422.626 40.6257C422.398 40.6167 422.139 40.6251 422.052 40.6442ZM430.237 41.3153C430.124 41.3612 430.125 41.388 430.254 41.6576C430.437 42.0386 430.839 42.388 431.26 42.531C431.655 42.6653 432.451 42.6863 432.451 42.5623C432.451 42.2474 431.673 41.4774 431.217 41.3414C430.905 41.2482 430.433 41.2357 430.237 41.3153ZM423.418 41.5724C423.06 41.6708 422.758 41.8592 422.48 42.1563L422.308 42.34L422.48 42.4376C422.586 42.498 422.892 42.5352 423.282 42.5353C423.856 42.5354 423.939 42.5167 424.214 42.3267C424.381 42.212 424.569 42.0381 424.633 41.9403C424.747 41.7674 424.744 41.7599 424.508 41.662C424.123 41.5015 423.778 41.4732 423.418 41.5724ZM429.116 42.1829C429.056 42.3399 429.141 42.9025 429.272 43.2158C429.428 43.5874 429.903 44.0581 430.352 44.2841C430.573 44.3959 430.784 44.4694 430.819 44.4475C430.908 44.3931 430.798 43.5482 430.66 43.2209C430.504 42.8505 430.213 42.5262 429.856 42.3232C429.425 42.0784 429.175 42.031 429.116 42.1829ZM424.524 42.6509C424.097 42.8431 423.748 43.1795 423.526 43.6119C423.252 44.1453 423.276 44.2045 423.734 44.145C424.514 44.0441 425.144 43.6321 425.413 43.0475C425.633 42.5697 425.606 42.4986 425.202 42.5005C425.011 42.5013 424.705 42.5691 424.524 42.6509Z" fill="#4474E3"/>
<path d="M481.585 29.9673L478.62 47.0298H475.011L470.616 35.8618L468.671 47.0298H464.956L467.909 29.9673H471.542L475.937 41.147L477.87 29.9673H481.585ZM488.241 44.0063L489.097 38.522C489.128 38.2095 489.116 37.9165 489.062 37.6431C489.015 37.3696 488.897 37.147 488.71 36.9751C488.522 36.7954 488.245 36.7017 487.878 36.6938C487.558 36.686 487.272 36.7446 487.022 36.8696C486.78 36.9868 486.581 37.1587 486.425 37.3853C486.276 37.6118 486.171 37.8774 486.108 38.1821L482.522 38.2056C482.562 37.4868 482.757 36.8657 483.108 36.3423C483.468 35.8188 483.925 35.3931 484.48 35.0649C485.034 34.729 485.64 34.4829 486.296 34.3267C486.952 34.1704 487.597 34.1001 488.23 34.1157C489.112 34.1313 489.909 34.3188 490.62 34.6782C491.331 35.0298 491.874 35.5376 492.249 36.2017C492.632 36.8579 492.78 37.6548 492.694 38.5923L491.839 43.9126C491.769 44.3735 491.706 44.8618 491.651 45.3774C491.605 45.8853 491.679 46.3618 491.874 46.8071L491.862 47.0298L488.358 47.0415C488.202 46.5571 488.124 46.0571 488.124 45.5415C488.124 45.0181 488.163 44.5063 488.241 44.0063ZM489.495 39.2954L489.167 41.311L487.573 41.2993C487.261 41.3071 486.952 41.354 486.647 41.4399C486.343 41.5181 486.069 41.6431 485.827 41.8149C485.585 41.979 485.382 42.1899 485.218 42.4478C485.054 42.6978 484.952 42.9946 484.913 43.3384C484.874 43.5884 484.894 43.811 484.972 44.0063C485.058 44.1938 485.187 44.3423 485.358 44.4517C485.53 44.561 485.741 44.6196 485.991 44.6274C486.358 44.6353 486.714 44.5688 487.058 44.4282C487.409 44.2798 487.714 44.0728 487.972 43.8071C488.23 43.5337 488.405 43.2212 488.499 42.8696L489.19 44.4165C488.995 44.8462 488.761 45.2368 488.487 45.5884C488.214 45.9399 487.905 46.2446 487.562 46.5024C487.218 46.7524 486.835 46.9478 486.413 47.0884C485.999 47.229 485.546 47.2954 485.054 47.2876C484.351 47.272 483.706 47.1079 483.12 46.7954C482.542 46.4751 482.081 46.0376 481.737 45.4829C481.394 44.9282 481.237 44.2876 481.269 43.561C481.3 42.7173 481.507 42.022 481.89 41.4751C482.272 40.9204 482.769 40.4829 483.378 40.1626C483.987 39.8423 484.651 39.6157 485.37 39.4829C486.089 39.3501 486.804 39.2837 487.515 39.2837L489.495 39.2954ZM502.069 34.3501L501.612 36.9165H494.312L494.757 34.3501H502.069ZM496.972 31.2095H500.546L498.507 43.0806C498.476 43.354 498.476 43.5806 498.507 43.7603C498.546 43.9399 498.632 44.0806 498.765 44.1821C498.905 44.2759 499.12 44.3306 499.409 44.3462C499.581 44.354 499.749 44.3501 499.913 44.3345C500.077 44.311 500.241 44.2915 500.405 44.2759L500.147 46.9595C499.827 47.061 499.499 47.1353 499.163 47.1821C498.835 47.229 498.499 47.2524 498.155 47.2524C497.382 47.2368 496.741 47.0767 496.233 46.772C495.726 46.4595 495.358 46.022 495.132 45.4595C494.913 44.8892 494.839 44.2251 494.909 43.4673L496.972 31.2095ZM509.323 43.7837L510.964 34.3501H514.55L512.347 47.0298H509.007L509.323 43.7837ZM510.062 41.3696L511.046 41.3462C510.96 42.0728 510.796 42.7954 510.554 43.5142C510.319 44.2251 509.991 44.8657 509.569 45.436C509.155 46.0063 508.636 46.4595 508.011 46.7954C507.394 47.1313 506.663 47.2915 505.819 47.2759C505.124 47.2603 504.538 47.1274 504.062 46.8774C503.585 46.6274 503.202 46.2837 502.913 45.8462C502.632 45.4087 502.44 44.9087 502.339 44.3462C502.245 43.7837 502.23 43.186 502.292 42.5532L503.663 34.3501H507.237L505.843 42.6001C505.819 42.8423 505.819 43.0728 505.843 43.2915C505.874 43.5103 505.937 43.7017 506.03 43.8657C506.124 44.0298 506.257 44.1626 506.429 44.2642C506.608 44.3579 506.839 44.4087 507.12 44.4165C507.753 44.4478 508.269 44.3228 508.667 44.0415C509.073 43.7524 509.386 43.3735 509.605 42.9048C509.831 42.4282 509.983 41.9165 510.062 41.3696ZM519.882 37.5024L518.23 47.0298H514.655L516.858 34.3501H520.198L519.882 37.5024ZM524.019 34.2446L523.573 37.6548C523.37 37.6235 523.171 37.5962 522.976 37.5728C522.78 37.5493 522.581 37.5376 522.378 37.5376C521.933 37.5298 521.53 37.5845 521.171 37.7017C520.819 37.811 520.511 37.979 520.245 38.2056C519.987 38.4321 519.772 38.7134 519.601 39.0493C519.429 39.3774 519.3 39.7524 519.214 40.1743L518.558 39.8462C518.644 39.2446 518.776 38.6118 518.956 37.9478C519.136 37.2759 519.386 36.647 519.706 36.061C520.034 35.4673 520.452 34.9907 520.96 34.6313C521.476 34.2642 522.108 34.0806 522.858 34.0806C523.054 34.0806 523.245 34.0962 523.433 34.1274C523.628 34.1587 523.823 34.1978 524.019 34.2446ZM529.198 47.2642C528.323 47.2485 527.53 47.0845 526.819 46.772C526.116 46.4595 525.522 46.0298 525.038 45.4829C524.554 44.9282 524.198 44.2837 523.972 43.5493C523.745 42.8149 523.663 42.0142 523.726 41.147L523.772 40.6899C523.866 39.7837 524.081 38.9321 524.417 38.1353C524.761 37.3384 525.218 36.6353 525.788 36.0259C526.358 35.4087 527.03 34.9321 527.804 34.5962C528.585 34.2524 529.456 34.0923 530.417 34.1157C531.3 34.1313 532.058 34.311 532.69 34.6548C533.331 34.9907 533.847 35.4478 534.237 36.0259C534.636 36.604 534.909 37.2603 535.058 37.9946C535.206 38.729 535.237 39.5063 535.151 40.3267L534.94 41.8267H525.015L525.39 39.4712L531.73 39.4829L531.8 39.1665C531.855 38.7681 531.835 38.4048 531.741 38.0767C531.647 37.7407 531.472 37.4712 531.214 37.2681C530.956 37.0649 530.608 36.9556 530.171 36.9399C529.663 36.9321 529.237 37.0415 528.894 37.2681C528.55 37.4946 528.272 37.7993 528.062 38.1821C527.851 38.5571 527.687 38.9673 527.569 39.4126C527.46 39.8501 527.378 40.2759 527.323 40.6899L527.276 41.1353C527.245 41.5415 527.257 41.936 527.312 42.3188C527.374 42.7017 527.491 43.0493 527.663 43.3618C527.843 43.6665 528.085 43.9165 528.39 44.1118C528.702 44.2993 529.089 44.4009 529.55 44.4165C530.151 44.4321 530.71 44.3149 531.226 44.0649C531.749 43.8149 532.218 43.479 532.632 43.0571L534.179 45.0142C533.819 45.5454 533.366 45.979 532.819 46.3149C532.272 46.6431 531.683 46.8853 531.05 47.0415C530.425 47.1978 529.808 47.272 529.198 47.2642ZM544.222 38.2642L543.73 41.1235H537.073L537.565 38.2642H544.222ZM552.401 29.9673L549.437 47.0298H545.722L548.675 29.9673H552.401ZM557.675 37.1626L557.159 40.1157H549.589L550.105 37.1626H557.675ZM559.644 29.9673L559.128 32.9321H550.831L551.358 29.9673H559.644ZM563.218 37.5024L561.565 47.0298H557.991L560.194 34.3501H563.534L563.218 37.5024ZM567.355 34.2446L566.909 37.6548C566.706 37.6235 566.507 37.5962 566.312 37.5728C566.116 37.5493 565.917 37.5376 565.714 37.5376C565.269 37.5298 564.866 37.5845 564.507 37.7017C564.155 37.811 563.847 37.979 563.581 38.2056C563.323 38.4321 563.108 38.7134 562.937 39.0493C562.765 39.3774 562.636 39.7524 562.55 40.1743L561.894 39.8462C561.98 39.2446 562.112 38.6118 562.292 37.9478C562.472 37.2759 562.722 36.647 563.042 36.061C563.37 35.4673 563.788 34.9907 564.296 34.6313C564.812 34.2642 565.444 34.0806 566.194 34.0806C566.39 34.0806 566.581 34.0962 566.769 34.1274C566.964 34.1587 567.159 34.1978 567.355 34.2446ZM572.616 34.3501L570.425 47.0298H566.839L569.042 34.3501H572.616ZM569.394 31.1274C569.378 30.5571 569.565 30.104 569.956 29.7681C570.355 29.4243 570.827 29.2485 571.374 29.2407C571.897 29.2329 572.358 29.3892 572.757 29.7095C573.155 30.022 573.358 30.4517 573.366 30.9985C573.374 31.5688 573.179 32.0259 572.78 32.3696C572.39 32.7056 571.925 32.8774 571.386 32.8853C570.862 32.8931 570.401 32.7407 570.003 32.4282C569.612 32.1157 569.409 31.6821 569.394 31.1274ZM579.05 47.2642C578.175 47.2485 577.382 47.0845 576.671 46.772C575.968 46.4595 575.374 46.0298 574.89 45.4829C574.405 44.9282 574.05 44.2837 573.823 43.5493C573.597 42.8149 573.515 42.0142 573.577 41.147L573.624 40.6899C573.718 39.7837 573.933 38.9321 574.269 38.1353C574.612 37.3384 575.069 36.6353 575.64 36.0259C576.21 35.4087 576.882 34.9321 577.655 34.5962C578.437 34.2524 579.308 34.0923 580.269 34.1157C581.151 34.1313 581.909 34.311 582.542 34.6548C583.183 34.9907 583.698 35.4478 584.089 36.0259C584.487 36.604 584.761 37.2603 584.909 37.9946C585.058 38.729 585.089 39.5063 585.003 40.3267L584.792 41.8267H574.866L575.241 39.4712L581.581 39.4829L581.651 39.1665C581.706 38.7681 581.687 38.4048 581.593 38.0767C581.499 37.7407 581.323 37.4712 581.065 37.2681C580.808 37.0649 580.46 36.9556 580.022 36.9399C579.515 36.9321 579.089 37.0415 578.745 37.2681C578.401 37.4946 578.124 37.7993 577.913 38.1821C577.702 38.5571 577.538 38.9673 577.421 39.4126C577.312 39.8501 577.23 40.2759 577.175 40.6899L577.128 41.1353C577.097 41.5415 577.108 41.936 577.163 42.3188C577.226 42.7017 577.343 43.0493 577.515 43.3618C577.694 43.6665 577.937 43.9165 578.241 44.1118C578.554 44.2993 578.94 44.4009 579.401 44.4165C580.003 44.4321 580.562 44.3149 581.077 44.0649C581.601 43.8149 582.069 43.479 582.483 43.0571L584.03 45.0142C583.671 45.5454 583.218 45.979 582.671 46.3149C582.124 46.6431 581.534 46.8853 580.901 47.0415C580.276 47.1978 579.659 47.272 579.05 47.2642ZM590.769 37.2563L589.058 47.0298H585.483L587.687 34.3501H591.026L590.769 37.2563ZM589.796 40.2446L588.987 40.2798C589.065 39.522 589.23 38.772 589.48 38.0298C589.73 37.2876 590.073 36.6196 590.511 36.0259C590.956 35.4243 591.503 34.9517 592.151 34.6079C592.8 34.2563 593.562 34.0884 594.437 34.104C595.14 34.1274 595.718 34.2798 596.171 34.561C596.632 34.8345 596.983 35.2017 597.226 35.6626C597.476 36.1157 597.636 36.6313 597.706 37.2095C597.776 37.7798 597.776 38.3735 597.706 38.9907L596.37 47.0298H592.772L594.132 38.9556C594.171 38.5728 594.159 38.229 594.097 37.9243C594.034 37.6196 593.89 37.3853 593.663 37.2212C593.444 37.0493 593.116 36.9556 592.679 36.9399C592.21 36.9321 591.808 37.0259 591.472 37.2212C591.136 37.4087 590.855 37.6665 590.628 37.9946C590.401 38.3149 590.222 38.6743 590.089 39.0728C589.964 39.4634 589.866 39.854 589.796 40.2446ZM606.355 43.9829L608.956 29.0298H612.554L609.425 47.0298H606.214L606.355 43.9829ZM599.253 40.936L599.276 40.6782C599.37 39.9048 599.546 39.1235 599.804 38.3345C600.069 37.5454 600.429 36.8267 600.882 36.1782C601.335 35.5298 601.894 35.0142 602.558 34.6313C603.23 34.2485 604.026 34.0728 604.948 34.104C605.737 34.1353 606.382 34.3657 606.882 34.7954C607.39 35.2173 607.784 35.7563 608.065 36.4126C608.347 37.061 608.538 37.7524 608.64 38.4868C608.749 39.2134 608.792 39.8931 608.769 40.5259L608.722 40.9712C608.597 41.6431 608.39 42.354 608.101 43.104C607.819 43.8462 607.448 44.5376 606.987 45.1782C606.526 45.8188 605.98 46.3345 605.347 46.7251C604.714 47.1157 603.995 47.2993 603.19 47.2759C602.339 47.2524 601.64 47.0454 601.093 46.6548C600.546 46.2642 600.124 45.7563 599.827 45.1313C599.538 44.4985 599.351 43.8188 599.265 43.0923C599.187 42.3579 599.183 41.6392 599.253 40.936ZM602.862 40.6665L602.839 40.9126C602.808 41.2251 602.788 41.5767 602.78 41.9673C602.772 42.3579 602.804 42.7368 602.874 43.104C602.952 43.4712 603.101 43.7798 603.319 44.0298C603.546 44.2798 603.874 44.4165 604.304 44.4399C604.897 44.4556 605.394 44.3149 605.792 44.0181C606.19 43.7212 606.503 43.3384 606.73 42.8696C606.964 42.3931 607.116 41.9009 607.187 41.3931L607.351 40.1509C607.39 39.8149 607.397 39.4634 607.374 39.0962C607.358 38.729 607.296 38.3892 607.187 38.0767C607.077 37.7563 606.897 37.4907 606.647 37.2798C606.405 37.0688 606.065 36.9595 605.628 36.9517C605.144 36.936 604.733 37.0454 604.397 37.2798C604.062 37.5142 603.788 37.8228 603.577 38.2056C603.374 38.5884 603.218 38.9985 603.108 39.436C602.999 39.8657 602.917 40.2759 602.862 40.6665ZM618.659 29.0298L615.542 47.0298H611.956L615.073 29.0298H618.659ZM622.034 45.3892L627.12 34.3501H631.069L623.64 48.9399C623.421 49.4165 623.171 49.8501 622.89 50.2407C622.608 50.6392 622.288 50.9829 621.929 51.272C621.577 51.5688 621.175 51.7954 620.722 51.9517C620.276 52.1079 619.776 52.186 619.222 52.186C618.94 52.186 618.663 52.1587 618.39 52.104C618.116 52.0571 617.847 52.0024 617.581 51.9399L617.851 49.2681C617.929 49.2837 618.011 49.2915 618.097 49.2915C618.175 49.2993 618.249 49.3032 618.319 49.3032C618.679 49.3032 618.999 49.2603 619.28 49.1743C619.562 49.0962 619.812 48.9634 620.03 48.7759C620.249 48.5884 620.44 48.3384 620.605 48.0259L622.034 45.3892ZM622.843 34.3501L623.851 43.561L623.628 47.2642L621.261 47.3931L619.128 34.3501H622.843ZM644.136 39.6587H639.706L640.14 37.104L643.468 37.1157C643.96 37.1157 644.433 37.0532 644.886 36.9282C645.347 36.7954 645.737 36.5767 646.058 36.272C646.378 35.9595 646.577 35.5259 646.655 34.9712C646.733 34.4712 646.69 34.0767 646.526 33.7876C646.37 33.4907 646.12 33.2798 645.776 33.1548C645.44 33.022 645.042 32.9517 644.581 32.9438L642.237 32.9321L639.788 47.0298H636.073L639.026 29.9673L644.698 29.979C645.433 29.9868 646.151 30.0728 646.855 30.2368C647.565 30.3931 648.198 30.647 648.753 30.9985C649.308 31.3423 649.741 31.8071 650.054 32.3931C650.366 32.979 650.495 33.7056 650.44 34.5728C650.386 35.5103 650.116 36.2759 649.632 36.8696C649.155 37.4634 648.542 37.9048 647.792 38.1938C647.05 38.4829 646.249 38.647 645.39 38.686L644.136 39.6587ZM642.753 47.0298H637.397L639.261 44.0767L642.87 44.0884C643.355 44.0806 643.808 43.9985 644.23 43.8423C644.651 43.686 645.003 43.4438 645.284 43.1157C645.573 42.7876 645.757 42.3735 645.835 41.8735C645.905 41.436 645.894 41.0571 645.8 40.7368C645.706 40.4165 645.522 40.1665 645.249 39.9868C644.976 39.7993 644.616 39.6938 644.171 39.6704L640.644 39.6587L641.112 37.104L645.05 37.1157L645.694 38.1118C646.468 38.1431 647.147 38.3032 647.733 38.5923C648.327 38.8813 648.78 39.3071 649.093 39.8696C649.413 40.4243 649.546 41.104 649.491 41.9087C649.413 43.1587 649.05 44.1587 648.401 44.9087C647.761 45.6587 646.94 46.2017 645.94 46.5376C644.94 46.8735 643.878 47.0376 642.753 47.0298ZM657.905 44.0063L658.761 38.522C658.792 38.2095 658.78 37.9165 658.726 37.6431C658.679 37.3696 658.562 37.147 658.374 36.9751C658.187 36.7954 657.909 36.7017 657.542 36.6938C657.222 36.686 656.937 36.7446 656.687 36.8696C656.444 36.9868 656.245 37.1587 656.089 37.3853C655.94 37.6118 655.835 37.8774 655.772 38.1821L652.187 38.2056C652.226 37.4868 652.421 36.8657 652.772 36.3423C653.132 35.8188 653.589 35.3931 654.144 35.0649C654.698 34.729 655.304 34.4829 655.96 34.3267C656.616 34.1704 657.261 34.1001 657.894 34.1157C658.776 34.1313 659.573 34.3188 660.284 34.6782C660.995 35.0298 661.538 35.5376 661.913 36.2017C662.296 36.8579 662.444 37.6548 662.358 38.5923L661.503 43.9126C661.433 44.3735 661.37 44.8618 661.315 45.3774C661.269 45.8853 661.343 46.3618 661.538 46.8071L661.526 47.0298L658.022 47.0415C657.866 46.5571 657.788 46.0571 657.788 45.5415C657.788 45.0181 657.827 44.5063 657.905 44.0063ZM659.159 39.2954L658.831 41.311L657.237 41.2993C656.925 41.3071 656.616 41.354 656.312 41.4399C656.007 41.5181 655.733 41.6431 655.491 41.8149C655.249 41.979 655.046 42.1899 654.882 42.4478C654.718 42.6978 654.616 42.9946 654.577 43.3384C654.538 43.5884 654.558 43.811 654.636 44.0063C654.722 44.1938 654.851 44.3423 655.022 44.4517C655.194 44.561 655.405 44.6196 655.655 44.6274C656.022 44.6353 656.378 44.5688 656.722 44.4282C657.073 44.2798 657.378 44.0728 657.636 43.8071C657.894 43.5337 658.069 43.2212 658.163 42.8696L658.855 44.4165C658.659 44.8462 658.425 45.2368 658.151 45.5884C657.878 45.9399 657.569 46.2446 657.226 46.5024C656.882 46.7524 656.499 46.9478 656.077 47.0884C655.663 47.229 655.21 47.2954 654.718 47.2876C654.015 47.272 653.37 47.1079 652.784 46.7954C652.206 46.4751 651.745 46.0376 651.401 45.4829C651.058 44.9282 650.901 44.2876 650.933 43.561C650.964 42.7173 651.171 42.022 651.554 41.4751C651.937 40.9204 652.433 40.4829 653.042 40.1626C653.651 39.8423 654.315 39.6157 655.034 39.4829C655.753 39.3501 656.468 39.2837 657.179 39.2837L659.159 39.2954ZM671.733 34.3501L671.276 36.9165H663.976L664.421 34.3501H671.733ZM666.636 31.2095H670.21L668.171 43.0806C668.14 43.354 668.14 43.5806 668.171 43.7603C668.21 43.9399 668.296 44.0806 668.429 44.1821C668.569 44.2759 668.784 44.3306 669.073 44.3462C669.245 44.354 669.413 44.3501 669.577 44.3345C669.741 44.311 669.905 44.2915 670.069 44.2759L669.812 46.9595C669.491 47.061 669.163 47.1353 668.827 47.1821C668.499 47.229 668.163 47.2524 667.819 47.2524C667.046 47.2368 666.405 47.0767 665.897 46.772C665.39 46.4595 665.022 46.022 664.796 45.4595C664.577 44.8892 664.503 44.2251 664.573 43.4673L666.636 31.2095ZM679.679 34.3501L679.222 36.9165H671.921L672.366 34.3501H679.679ZM674.581 31.2095H678.155L676.116 43.0806C676.085 43.354 676.085 43.5806 676.116 43.7603C676.155 43.9399 676.241 44.0806 676.374 44.1821C676.515 44.2759 676.73 44.3306 677.019 44.3462C677.19 44.354 677.358 44.3501 677.522 44.3345C677.687 44.311 677.851 44.2915 678.015 44.2759L677.757 46.9595C677.437 47.061 677.108 47.1353 676.772 47.1821C676.444 47.229 676.108 47.2524 675.765 47.2524C674.991 47.2368 674.351 47.0767 673.843 46.772C673.335 46.4595 672.968 46.022 672.741 45.4595C672.522 44.8892 672.448 44.2251 672.519 43.4673L674.581 31.2095ZM685.269 47.2642C684.394 47.2485 683.601 47.0845 682.89 46.772C682.187 46.4595 681.593 46.0298 681.108 45.4829C680.624 44.9282 680.269 44.2837 680.042 43.5493C679.815 42.8149 679.733 42.0142 679.796 41.147L679.843 40.6899C679.937 39.7837 680.151 38.9321 680.487 38.1353C680.831 37.3384 681.288 36.6353 681.858 36.0259C682.429 35.4087 683.101 34.9321 683.874 34.5962C684.655 34.2524 685.526 34.0923 686.487 34.1157C687.37 34.1313 688.128 34.311 688.761 34.6548C689.401 34.9907 689.917 35.4478 690.308 36.0259C690.706 36.604 690.98 37.2603 691.128 37.9946C691.276 38.729 691.308 39.5063 691.222 40.3267L691.011 41.8267H681.085L681.46 39.4712L687.8 39.4829L687.87 39.1665C687.925 38.7681 687.905 38.4048 687.812 38.0767C687.718 37.7407 687.542 37.4712 687.284 37.2681C687.026 37.0649 686.679 36.9556 686.241 36.9399C685.733 36.9321 685.308 37.0415 684.964 37.2681C684.62 37.4946 684.343 37.7993 684.132 38.1821C683.921 38.5571 683.757 38.9673 683.64 39.4126C683.53 39.8501 683.448 40.2759 683.394 40.6899L683.347 41.1353C683.315 41.5415 683.327 41.936 683.382 42.3188C683.444 42.7017 683.562 43.0493 683.733 43.3618C683.913 43.6665 684.155 43.9165 684.46 44.1118C684.772 44.2993 685.159 44.4009 685.62 44.4165C686.222 44.4321 686.78 44.3149 687.296 44.0649C687.819 43.8149 688.288 43.479 688.702 43.0571L690.249 45.0142C689.89 45.5454 689.437 45.979 688.89 46.3149C688.343 46.6431 687.753 46.8853 687.12 47.0415C686.495 47.1978 685.878 47.272 685.269 47.2642ZM697.022 37.5024L695.37 47.0298H691.796L693.999 34.3501H697.339L697.022 37.5024ZM701.159 34.2446L700.714 37.6548C700.511 37.6235 700.312 37.5962 700.116 37.5728C699.921 37.5493 699.722 37.5376 699.519 37.5376C699.073 37.5298 698.671 37.5845 698.312 37.7017C697.96 37.811 697.651 37.979 697.386 38.2056C697.128 38.4321 696.913 38.7134 696.741 39.0493C696.569 39.3774 696.44 39.7524 696.355 40.1743L695.698 39.8462C695.784 39.2446 695.917 38.6118 696.097 37.9478C696.276 37.2759 696.526 36.647 696.847 36.061C697.175 35.4673 697.593 34.9907 698.101 34.6313C698.616 34.2642 699.249 34.0806 699.999 34.0806C700.194 34.0806 700.386 34.0962 700.573 34.1274C700.769 34.1587 700.964 34.1978 701.159 34.2446ZM704.651 45.3892L709.737 34.3501H713.687L706.257 48.9399C706.038 49.4165 705.788 49.8501 705.507 50.2407C705.226 50.6392 704.905 50.9829 704.546 51.272C704.194 51.5688 703.792 51.7954 703.339 51.9517C702.894 52.1079 702.394 52.186 701.839 52.186C701.558 52.186 701.28 52.1587 701.007 52.104C700.733 52.0571 700.464 52.0024 700.198 51.9399L700.468 49.2681C700.546 49.2837 700.628 49.2915 700.714 49.2915C700.792 49.2993 700.866 49.3032 700.937 49.3032C701.296 49.3032 701.616 49.2603 701.897 49.1743C702.179 49.0962 702.429 48.9634 702.647 48.7759C702.866 48.5884 703.058 48.3384 703.222 48.0259L704.651 45.3892ZM705.46 34.3501L706.468 43.561L706.245 47.2642L703.878 47.3931L701.745 34.3501H705.46Z" fill="#E7E8E6"/>
<rect x="387.896" y="39" width="1.00002" height="387.34" rx="0.500008" transform="rotate(90 387.896 39)" fill="url(#paint0_linear_60_370)" fill-opacity="0.5"/>
<rect x="1114.41" y="41" width="1.00002" height="386.337" rx="0.500008" transform="rotate(90 1114.41 41)" fill="url(#paint1_linear_60_370)" fill-opacity="0.5"/>
<defs>
<linearGradient id="paint0_linear_60_370" x1="388.396" y1="39" x2="388.396" y2="426.34" gradientUnits="userSpaceOnUse">
<stop stop-color="white"/>
<stop offset="0.0001" stop-color="white"/>
<stop offset="1" stop-color="white" stop-opacity="0"/>
</linearGradient>
<linearGradient id="paint1_linear_60_370" x1="1114.91" y1="41" x2="1114.91" y2="427.337" gradientUnits="userSpaceOnUse">
<stop stop-color="white" stop-opacity="0"/>
<stop offset="1" stop-color="white"/>
</linearGradient>
</defs>
</svg>
