<svg xmlns="http://www.w3.org/2000/svg" width="1080" height="1080" viewBox="0 0 1080 1080" version="1.1"><path d="M 513.610 307.597 C 523.214 314.011, 527.045 318.921, 539.930 341.333 C 544.725 349.675, 553.611 365.050, 559.675 375.500 C 565.739 385.950, 572.516 397.711, 574.735 401.635 L 578.769 408.771 565.634 416.336 C 549.319 425.734, 548.047 426.664, 549.863 427.860 C 550.612 428.353, 556.237 429.065, 562.363 429.441 C 568.488 429.817, 580.925 430.760, 590 431.535 C 635.038 435.385, 649.107 436.156, 650.666 434.862 C 651.504 434.167, 653.668 430.426, 655.475 426.549 C 657.282 422.672, 665.170 406, 673.005 389.500 C 680.839 373, 688.813 356.193, 690.725 352.151 C 692.637 348.108, 693.818 344.439, 693.351 343.997 C 692.883 343.554, 685.838 347.024, 677.696 351.709 C 669.554 356.393, 662.732 360.062, 662.537 359.863 C 662.342 359.663, 656.269 349.150, 649.040 336.500 C 639.603 319.986, 634.616 312.302, 631.352 309.250 L 626.807 305 568.264 305 L 509.721 305 513.610 307.597 M 471 309.888 C 462.840 312.529, 455.592 316.508, 451.230 320.740 C 449.099 322.808, 444.396 329.675, 440.778 336 C 437.160 342.325, 427.893 358.415, 420.185 371.756 L 406.170 396.011 413.335 400.147 C 417.276 402.422, 427.250 408.211, 435.500 413.012 C 443.750 417.813, 456.504 425.174, 463.841 429.370 L 477.183 437 485.885 437 L 494.587 437 516.294 399.040 C 528.232 378.162, 538 360.571, 538 359.949 C 538 357.953, 520.966 329.502, 516.978 324.835 C 505.391 311.280, 486.087 305.004, 471 309.888 M 366 521.019 C 351.918 522.408, 329.516 524.022, 316.500 524.586 C 292.906 525.607, 277.500 527.328, 277.500 528.944 C 277.500 529.745, 283.444 533.820, 290.857 538.101 C 298.204 542.344, 304.614 546.214, 305.101 546.701 C 305.617 547.217, 300.024 557.827, 291.744 572.044 L 277.500 596.500 277.500 603.500 C 277.500 611.454, 274.786 605.971, 302.492 654 C 329.972 701.636, 334.063 708.513, 334.618 708 C 334.915 707.725, 335.320 704.725, 335.516 701.333 C 336.054 692.045, 339.631 683.212, 350.314 664.795 C 355.641 655.611, 360 647.781, 360 647.396 C 360 646.428, 387.997 597.811, 389.489 596.188 C 390.469 595.123, 393.443 596.486, 405.308 603.438 C 413.344 608.147, 420.163 612, 420.460 612 C 420.757 612, 421 611.600, 421 611.111 C 421 609.084, 378.843 522.397, 377.300 521.250 C 376.375 520.563, 375.141 520.063, 374.559 520.140 C 373.976 520.217, 370.125 520.613, 366 521.019 M 781.797 566.308 L 781.500 592.676 778.637 596.805 C 776.850 599.383, 773.864 601.885, 770.691 603.467 C 765.900 605.854, 764.704 606, 749.917 606 L 734.227 606 733.521 610.711 C 732.623 616.700, 729.491 625.106, 726.959 628.325 C 725.882 629.695, 725 631.082, 725 631.408 C 725 631.733, 733.808 632, 744.574 632 C 762.930 632, 764.625 631.840, 771.824 629.432 C 790.498 623.186, 800.270 611.772, 803.297 592.672 C 805.171 580.846, 803.636 575.545, 792.963 556.989 C 787.892 548.172, 783.372 540.730, 782.918 540.449 C 782.465 540.169, 781.960 551.805, 781.797 566.308 M 648.500 626.843 C 641.900 635.976, 635.150 644.997, 633.500 646.889 C 631.850 648.780, 625.700 657.341, 619.833 665.914 C 613.966 674.486, 607.778 683.394, 606.083 685.708 C 604.387 688.022, 603 690.308, 603 690.788 C 603 691.268, 611.353 703.774, 621.563 718.580 C 631.772 733.386, 644.484 751.897, 649.813 759.716 C 655.141 767.535, 660.063 773.947, 660.750 773.966 C 661.702 773.992, 662 769.952, 662 757 L 662 740 689.318 740 C 719.347 740, 723.876 739.359, 729.689 734.284 C 731.485 732.716, 738.658 721.450, 746.106 708.500 C 790.254 631.738, 788.994 634, 787.626 634 C 787.420 634, 785.268 635.109, 782.843 636.464 C 774.533 641.109, 766.696 642.202, 738 642.720 C 723.425 642.982, 700.148 643.400, 686.274 643.647 L 661.048 644.097 660.774 627.167 L 660.500 610.236 648.500 626.843 M 359.253 669.750 C 348.561 688.396, 346.890 692.775, 346.232 703.872 C 345.375 718.352, 348.912 728.698, 357.650 737.264 C 363.721 743.215, 370.100 747.476, 376.250 749.687 C 378.862 750.626, 381 751.756, 381 752.198 C 381 752.639, 400.125 753, 423.500 753 L 466 753 466 703.500 L 466 654 417.142 654 L 368.285 654 359.253 669.750" stroke="none" fill="#77ba44" fill-rule="evenodd"/><path d="M 349.831 438.571 C 342.442 440.854, 332.995 447.772, 328.761 454 C 321.755 464.307, 321 468.648, 321 498.651 L 321 525.091 324.250 524.565 C 326.038 524.276, 334.250 523.553, 342.500 522.958 C 350.750 522.363, 361.537 521.507, 366.471 521.055 C 371.406 520.603, 376.083 520.478, 376.865 520.778 C 377.647 521.078, 383.091 531.264, 388.963 543.412 C 411.578 590.197, 421.295 611.039, 420.748 611.585 C 420.436 611.897, 413.546 608.265, 405.438 603.514 C 393.467 596.500, 390.469 595.123, 389.489 596.188 C 388.040 597.764, 360 646.413, 360 647.351 C 360 647.712, 421.523 647.893, 496.719 647.754 L 633.438 647.500 646.969 628.894 L 660.500 610.288 660.774 627.193 L 661.048 644.097 685.863 643.799 L 710.679 643.500 716.256 639.795 C 724.808 634.114, 731.768 622.401, 733.515 610.749 L 734.227 606 749.917 606 C 764.704 606, 765.900 605.854, 770.691 603.467 C 773.864 601.886, 776.850 599.382, 778.637 596.805 L 781.500 592.677 782.359 545.088 C 783.344 490.567, 783.398 491.102, 776.145 483.878 C 770.311 478.068, 765.876 477, 747.590 477 L 734.279 477 733.658 471.759 C 732.821 464.693, 727.670 454.574, 722.048 448.952 C 719.510 446.415, 714.309 442.800, 710.488 440.920 L 703.542 437.500 529.021 437.314 C 379.415 437.154, 353.833 437.334, 349.831 438.571 M 527.500 444.636 C 512.368 447.031, 494.803 454.466, 482.500 463.684 C 460.062 480.497, 447.126 503.540, 443.007 534.036 C 442.055 541.083, 442.129 544.424, 443.432 553.195 C 448.317 586.096, 464.133 610.513, 491.122 626.823 C 498.159 631.076, 511.107 636.554, 516.520 637.570 L 520 638.223 520.004 633.861 C 520.009 628.850, 522.361 613.848, 524.295 606.500 C 525.452 602.101, 525.390 600.678, 523.777 594.661 C 520.254 581.518, 513.171 571.434, 503.615 565.952 C 497.395 562.385, 499.482 562.080, 506.801 565.487 C 513.278 568.503, 523.263 577.812, 526.979 584.300 L 529.727 589.099 531.860 583.800 C 536.716 571.734, 537.427 567.939, 537.443 554 C 537.458 541.048, 537.313 540.083, 533.859 530.238 C 529.905 518.966, 523.029 506.785, 516.234 499.017 C 509.993 491.884, 512.525 492.792, 519.671 500.250 C 527.229 508.140, 534.367 517.821, 538.164 525.333 L 541.113 531.166 543.691 525.992 C 545.229 522.906, 547.891 519.643, 550.285 517.908 C 555.146 514.387, 557.770 514.021, 553.389 517.475 C 547.109 522.426, 543.808 534.940, 545.998 545.490 C 546.673 548.741, 547.512 555.308, 547.862 560.085 L 548.500 568.769 558.034 563.135 C 573.069 554.248, 579.668 548.809, 586.059 540.032 C 588.448 536.752, 590.596 534.263, 590.834 534.501 C 591.605 535.271, 583.192 548.595, 578.050 554.750 C 575.299 558.041, 568.589 564.381, 563.138 568.838 C 547.890 581.306, 544.466 586.373, 541.338 601.095 C 539.540 609.561, 538.674 639.008, 540.179 640.513 C 540.553 640.886, 545.728 640.672, 551.679 640.036 C 574.099 637.642, 593.450 628.520, 609.841 612.621 C 646.039 577.508, 649.736 521.528, 618.501 481.476 C 605.550 464.868, 588.807 453.773, 567 447.348 C 560.132 445.324, 555.812 444.778, 544.500 444.503 C 536.800 444.315, 529.150 444.375, 527.500 444.636 M 516.909 471.128 C 513.939 475.299, 513.258 482.665, 515.451 486.905 C 516.897 489.702, 517.341 489.962, 518.717 488.821 C 520.864 487.041, 523 481.720, 523 478.154 C 523 475.430, 520.479 468, 519.555 468 C 519.325 468, 518.134 469.407, 516.909 471.128 M 493 473.378 C 493 475.021, 496.270 480.915, 498.163 482.683 C 500.628 484.986, 505.073 487, 507.690 487 C 508.912 487, 509.111 486.306, 508.610 483.798 C 507.826 479.882, 504.574 476.200, 500.282 474.371 C 497.292 473.097, 493 472.512, 493 473.378 M 531.470 480.267 C 528.742 482.995, 526.783 486.092, 526.040 488.851 C 524.727 493.729, 525.486 499, 527.503 499 C 529.472 499, 534.845 494.201, 536.536 490.931 C 538.290 487.538, 538.547 476, 536.868 476 C 536.246 476, 533.817 477.920, 531.470 480.267 M 577.353 477.465 C 571.485 481.575, 570.107 494.154, 575.862 491.074 C 578.827 489.487, 581 484.824, 581 480.050 C 581 475.623, 580.495 475.265, 577.353 477.465 M 561.497 489.570 C 559.507 491.560, 557.456 494.300, 556.940 495.659 C 555.709 498.894, 555.731 506.716, 556.972 507.483 C 558.608 508.494, 563.007 504.906, 565.058 500.887 C 567.095 496.894, 567.744 487.578, 566.057 486.535 C 565.538 486.215, 563.486 487.580, 561.497 489.570 M 489.500 491.216 C 485.554 492.608, 485.495 492.687, 487.041 494.549 C 490.869 499.162, 500.886 501.376, 506.453 498.839 C 509.572 497.418, 509.605 496.915, 506.750 494.241 C 502.380 490.148, 495.801 488.994, 489.500 491.216 M 546.045 492.782 C 538.773 496.405, 534.857 501.437, 534.230 507.961 C 533.673 513.754, 534.187 514.006, 540.605 511.092 C 545.630 508.810, 548.659 505.752, 551.098 500.500 C 552.952 496.509, 553.671 489.971, 552.250 490.032 C 551.837 490.050, 549.045 491.287, 546.045 492.782 M 578.869 496.139 C 574.495 497.348, 569.487 502.221, 570.339 504.440 C 571.062 506.325, 579.918 506.623, 583.316 504.878 C 588.774 502.074, 593.090 496, 589.625 496 C 588.869 496, 586.956 495.805, 585.375 495.568 C 583.794 495.330, 580.866 495.587, 578.869 496.139 M 610.241 501.995 C 605.281 505.019, 600.636 514, 604.032 514 C 608.706 514, 615.991 507.533, 617.269 502.250 C 617.706 500.443, 617.388 500.001, 615.656 500.004 C 614.470 500.006, 612.033 500.902, 610.241 501.995 M 591.762 505.750 C 589.759 507.813, 587.642 510.767, 587.060 512.315 C 585.588 516.224, 585.735 523.255, 587.333 525.441 C 588.600 527.173, 588.797 527.179, 591.284 525.549 C 596.430 522.178, 599.394 511.804, 597.370 504.250 C 596.560 501.230, 596.011 501.377, 591.762 505.750 M 497.505 507.336 L 492.509 509.647 496.505 512.244 C 504.705 517.574, 511.992 518.134, 518.839 513.957 C 521.744 512.186, 522.005 511.710, 520.839 510.302 C 518.641 507.645, 511.808 505.045, 507 505.035 C 504.389 505.030, 500.403 505.996, 497.505 507.336 M 572 510.989 C 570.075 511.349, 567.081 512.387, 565.347 513.297 C 561.906 515.102, 557.481 521.351, 558.489 522.982 C 559.770 525.056, 569.119 524.120, 573.650 521.465 C 577.106 519.440, 583.694 512.166, 582.724 511.448 C 581.788 510.756, 574.843 510.459, 572 510.989 M 608.500 518.496 C 604.952 519.746, 599 525.178, 599 527.167 C 599 527.575, 600.618 528.213, 602.596 528.584 C 608.008 529.599, 613.919 527.389, 618.422 522.667 L 622.345 518.553 619.922 517.876 C 616.081 516.803, 612.804 516.981, 608.500 518.496 M 503.095 524.042 L 498.690 526.041 501.095 528.618 C 507.277 535.242, 517.791 537.264, 527.250 533.650 C 529.862 532.651, 532 531.606, 532 531.328 C 532 530.210, 527.222 526.753, 522.500 524.454 C 516.279 521.425, 509.195 521.275, 503.095 524.042 M 571.500 530.399 C 565.485 532.301, 561.281 534.729, 557.832 538.292 C 554.272 541.970, 551.054 548.395, 551.022 551.889 C 551.001 554.196, 551.199 554.260, 556.822 553.750 C 568.396 552.700, 577.151 545.326, 581.518 532.950 L 582.911 529 579.206 529.067 C 577.168 529.104, 573.700 529.703, 571.500 530.399 M 598.500 533.665 C 594.813 535.613, 592 538.011, 592 539.206 C 592 540.397, 598.338 543.001, 601.218 542.994 C 606.954 542.980, 617 537.897, 617 535.009 C 617 532.106, 603.331 531.113, 598.500 533.665 M 479.010 539.250 C 479.027 543.198, 483.659 551.638, 487.355 554.457 C 489.319 555.955, 492.742 557.424, 494.963 557.722 C 498.602 558.210, 499 558.050, 499 556.100 C 499 553.050, 496.306 546.964, 493.702 544.131 C 491.500 541.736, 482.608 537.028, 480.250 537.010 C 479.563 537.004, 479.004 538.013, 479.010 539.250 M 500 542.481 C 500 545.668, 506.308 556.108, 510.296 559.522 C 514.967 563.519, 521.664 566, 527.787 566 C 532.115 566, 532.201 565.937, 531.550 563.250 C 530.310 558.141, 526.862 552.061, 523.672 549.364 C 519.208 545.588, 511.416 542.230, 505.250 541.427 C 500.667 540.829, 500 540.963, 500 542.481 M 593.500 548.938 C 588.855 550.064, 584 552.899, 584 554.484 C 584 555.271, 586.029 557.105, 588.508 558.558 C 591.985 560.595, 594.349 561.200, 598.841 561.200 C 605.131 561.200, 615.362 557.596, 614.707 555.611 C 614.171 553.984, 604.069 549.222, 600 548.678 C 598.075 548.421, 595.150 548.537, 593.500 548.938 M 465.323 555.645 C 461.182 556.548, 460.627 558.598, 463.892 560.923 C 470.543 565.659, 476.133 566.489, 483.250 563.797 C 486.845 562.438, 486.723 561.653, 482.402 558.358 C 479.597 556.218, 477.560 555.565, 473.152 555.392 C 470.044 555.270, 466.520 555.384, 465.323 555.645 M 576.833 564.820 C 575.297 565.447, 575.316 565.814, 577.073 569.500 C 579.557 574.708, 585.039 579.484, 590.774 581.439 C 596.163 583.275, 607 583.562, 607 581.868 C 607 577.562, 596.401 567.036, 590.193 565.176 C 585.944 563.903, 579.503 563.731, 576.833 564.820 M 483.939 568.334 C 479.068 569.680, 474.945 572.255, 471.156 576.317 L 468.812 578.829 471.156 580.163 C 472.607 580.988, 476.772 581.497, 482.085 581.498 C 489.900 581.500, 491.041 581.244, 494.788 578.647 C 497.052 577.078, 499.621 574.701, 500.497 573.364 C 502.046 571, 502 570.898, 498.794 569.559 C 493.541 567.365, 488.842 566.978, 483.939 568.334 M 561.569 576.681 C 560.745 578.827, 561.901 586.518, 563.690 590.801 C 565.813 595.882, 572.294 602.316, 578.403 605.406 C 581.422 606.934, 584.289 607.939, 584.773 607.640 C 585.977 606.896, 584.479 595.346, 582.599 590.871 C 580.472 585.807, 576.514 581.374, 571.645 578.599 C 565.773 575.252, 562.366 574.604, 561.569 576.681 M 499 583.079 C 493.189 585.706, 488.432 590.305, 485.411 596.217 C 481.684 603.509, 481.999 604.318, 488.250 603.505 C 498.869 602.125, 507.455 596.493, 511.121 588.500 C 514.117 581.968, 513.744 580.997, 508.250 581.022 C 505.637 581.034, 501.475 581.960, 499 583.079" stroke="none" fill="#4474e3" fill-rule="evenodd"/></svg>