<svg width="323" height="318" viewBox="0 0 323 318" fill="none" xmlns="http://www.w3.org/2000/svg">
<mask id="path-1-inside-1_52_3" fill="white">
<path fill-rule="evenodd" clip-rule="evenodd" d="M139.175 0.904463C114.472 4.7722 85.7969 16.7792 65.7122 31.6655C29.082 58.8172 7.96379 96.0299 1.23949 145.279C-0.314658 156.659 -0.193821 162.054 1.93334 176.219C9.90814 229.351 35.7279 268.783 79.7877 295.122C91.2757 301.991 112.413 310.837 121.25 312.478L126.931 313.533L126.938 306.488C126.946 298.396 130.786 274.169 133.943 262.302C135.832 255.198 135.73 252.9 133.097 243.183C127.346 221.958 115.783 205.674 100.183 196.821C90.0284 191.06 93.4354 190.568 105.384 196.07C115.958 200.94 132.258 215.973 138.325 226.451L142.811 234.201L146.293 225.644C154.22 206.158 155.381 200.029 155.407 177.519C155.432 156.602 155.195 155.044 149.556 139.145C143.101 120.942 131.876 101.27 120.783 88.7256C110.595 77.2064 114.728 78.6727 126.394 90.7168C138.733 103.459 150.386 119.093 156.584 131.224L161.398 140.644L165.607 132.288C168.118 127.305 172.463 122.035 176.372 119.233C184.307 113.547 188.591 112.956 181.439 118.534C171.187 126.529 165.798 146.738 169.373 163.776C170.475 169.026 171.845 179.631 172.416 187.346L173.458 201.37L189.022 192.271C213.567 177.919 224.34 169.136 234.773 154.962C238.673 149.665 242.18 145.645 242.568 146.029C243.827 147.273 230.093 168.79 221.698 178.73C217.207 184.045 206.253 194.283 197.354 201.481C172.462 221.616 166.872 229.799 161.766 253.574C158.83 267.246 157.417 314.8 159.874 317.231C160.484 317.833 168.932 317.488 178.647 316.46C215.248 312.594 246.839 297.863 273.597 272.187C332.691 215.482 338.726 125.079 287.735 60.3983C266.592 33.5776 239.259 15.66 203.659 5.28414C192.447 2.01554 185.395 1.13379 166.928 0.689685C154.357 0.38608 141.869 0.482968 139.175 0.904463ZM121.885 43.687C117.037 50.4229 115.925 62.3184 119.505 69.1657C121.866 73.6826 122.59 74.1025 124.837 72.2599C128.342 69.3853 131.829 60.7923 131.829 55.0335C131.829 50.6344 127.713 38.6355 126.205 38.6355C125.829 38.6355 123.885 40.9077 121.885 43.687ZM82.8535 47.3206C82.8535 49.9739 88.1918 59.4923 91.2822 62.3475C95.3063 66.0666 102.563 69.3191 106.835 69.3191C108.83 69.3191 109.155 68.1983 108.337 64.1481C107.057 57.8241 101.748 51.8779 94.7415 48.9242C89.8603 46.8668 82.8535 45.9221 82.8535 47.3206ZM145.656 58.4458C141.203 62.8513 138.005 67.8527 136.792 72.3083C134.648 80.1859 135.887 88.6982 139.18 88.6982C142.394 88.6982 151.166 80.9481 153.926 75.6673C156.79 70.1879 157.209 51.5549 154.468 51.5549C153.453 51.5549 149.488 54.6556 145.656 58.4458ZM220.561 53.9208C210.981 60.5581 208.731 80.8722 218.126 75.8983C222.967 73.3354 226.514 65.805 226.514 58.0953C226.514 50.9461 225.69 50.368 220.561 53.9208ZM194.675 73.4694C191.427 76.6831 188.078 81.108 187.236 83.3027C185.226 88.527 185.262 101.159 187.288 102.398C189.959 104.03 197.141 98.2359 200.489 91.7455C203.814 85.2971 204.874 70.2525 202.12 68.5681C201.272 68.0514 197.923 70.2557 194.675 73.4694ZM77.1397 76.1276C70.6979 78.3756 70.6015 78.5032 73.1254 81.5101C79.3746 88.9598 95.7275 92.5352 104.816 88.4381C109.907 86.1433 109.961 85.331 105.301 81.0127C98.1664 74.4028 87.4262 72.5392 77.1397 76.1276ZM169.45 78.6566C157.578 84.5074 151.185 92.6337 150.162 103.169C149.252 112.525 150.092 112.932 160.569 108.226C168.772 104.541 173.717 99.6021 177.699 91.1205C180.726 84.6754 181.899 74.117 179.58 74.2155C178.905 74.2446 174.347 76.2423 169.45 78.6566ZM223.035 84.0779C215.895 86.0303 207.719 93.8998 209.11 97.4833C210.29 100.527 224.748 101.009 230.295 98.1907C239.205 93.6624 246.251 83.8534 240.595 83.8534C239.36 83.8534 236.238 83.5385 233.657 83.1557C231.076 82.7714 226.296 83.1864 223.035 84.0779ZM274.25 93.5349C266.153 98.4184 258.57 112.922 264.114 112.922C271.745 112.922 283.637 102.478 285.724 93.9467C286.437 91.0285 285.918 90.3147 283.091 90.3195C281.154 90.3228 277.176 91.7697 274.25 93.5349ZM244.083 99.5989C240.813 102.93 237.357 107.701 236.407 110.201C234.004 116.514 234.244 127.868 236.853 131.398C238.921 134.195 239.243 134.205 243.303 131.573C251.704 126.129 256.543 109.376 253.238 97.1765C251.916 92.2994 251.02 92.5368 244.083 99.5989ZM90.208 102.16L82.0519 105.892L88.5755 110.086C101.962 118.694 113.858 119.598 125.036 112.853C129.778 109.992 130.204 109.224 128.301 106.95C124.713 102.659 113.558 98.4604 105.709 98.4442C101.446 98.4361 94.939 99.9962 90.208 102.16ZM211.822 108.059C208.679 108.641 203.791 110.317 200.961 111.787C195.343 114.702 188.119 124.793 189.765 127.427C191.856 130.777 207.118 129.265 214.515 124.977C220.157 121.707 230.912 109.96 229.329 108.801C227.801 107.683 216.463 107.204 211.822 108.059ZM271.408 120.183C265.616 122.201 255.899 130.974 255.899 134.186C255.899 134.845 258.541 135.875 261.77 136.474C270.605 138.113 280.255 134.544 287.606 126.919L294.01 120.275L290.055 119.181C283.784 117.449 278.435 117.736 271.408 120.183ZM99.3337 129.139L92.1425 132.367L96.0687 136.529C106.161 147.226 123.325 150.492 138.767 144.655C143.031 143.042 146.521 141.354 146.521 140.905C146.521 139.1 138.721 133.517 131.013 129.804C120.857 124.913 109.292 124.671 99.3337 129.139ZM211.005 139.405C201.186 142.477 194.323 146.398 188.692 152.152C182.881 158.091 177.627 168.467 177.575 174.11C177.541 177.835 177.864 177.939 187.044 177.115C205.938 175.42 220.231 163.511 227.36 143.525L229.634 137.146L223.586 137.254C220.258 137.314 214.597 138.281 211.005 139.405ZM255.083 144.679C249.064 147.825 244.472 151.698 244.472 153.628C244.472 155.551 254.819 159.756 259.52 159.745C268.884 159.723 285.285 151.514 285.285 146.85C285.285 142.162 262.97 140.558 255.083 144.679ZM60.0147 153.699C60.0425 160.075 67.6043 173.704 73.638 178.257C76.8443 180.676 82.4324 183.048 86.0582 183.53C91.9989 184.318 92.6486 184.059 92.6486 180.91C92.6486 175.985 88.2506 166.156 83.9995 161.581C80.4048 157.713 65.8885 150.11 62.039 150.081C60.9175 150.072 60.0049 151.701 60.0147 153.699ZM94.2811 158.917C94.2811 164.063 104.579 180.923 111.089 186.436C118.715 192.891 129.648 196.898 139.644 196.898C146.709 196.898 146.849 196.796 145.787 192.457C143.762 184.206 138.134 174.388 132.926 170.032C125.638 163.934 112.918 158.511 102.852 157.215C95.37 156.249 94.2811 156.465 94.2811 158.917ZM246.921 169.344C239.338 171.163 231.412 175.741 231.412 178.301C231.412 179.571 234.724 182.533 238.771 184.88C244.447 188.169 248.307 189.146 255.64 189.146C265.908 189.146 282.61 183.326 281.541 180.121C280.666 177.493 264.175 169.803 257.532 168.924C254.389 168.509 249.614 168.697 246.921 169.344ZM37.6706 180.175C30.9104 181.634 30.0043 184.944 35.3345 188.699C46.1923 196.347 55.318 197.688 66.9366 193.34C72.8054 191.146 72.6063 189.878 65.5522 184.557C60.973 181.101 57.6476 180.046 50.4515 179.767C45.3777 179.57 39.6247 179.754 37.6706 180.175ZM219.712 194.992C217.204 196.005 217.235 196.598 220.103 202.55C224.159 210.961 233.108 218.674 242.47 221.831C251.268 224.796 268.959 225.259 268.959 222.524C268.959 215.57 251.657 198.571 241.522 195.567C234.585 193.512 224.07 193.234 219.712 194.992ZM68.0613 200.667C60.1094 202.841 53.3786 206.999 47.193 213.559L43.3664 217.616L47.193 219.77C49.5618 221.102 56.3611 221.924 65.0347 221.926C77.7927 221.929 79.6554 221.516 85.7724 217.322C89.4684 214.788 93.6624 210.949 95.0924 208.79C97.6212 204.973 97.5461 204.808 92.3123 202.646C83.7367 199.102 76.0655 198.477 68.0613 200.667ZM194.793 214.147C193.448 217.613 195.335 230.033 198.256 236.95C201.721 245.155 212.302 255.546 222.275 260.536C227.203 263.003 231.884 264.626 232.674 264.143C234.639 262.942 232.194 244.289 229.125 237.063C225.652 228.885 219.191 221.726 211.242 217.244C201.656 211.839 196.094 210.793 194.793 214.147ZM92.6486 224.479C83.1621 228.722 75.3962 236.149 70.4644 245.696C64.3801 257.472 64.8943 258.779 75.0991 257.466C92.4347 255.237 106.451 246.142 112.436 233.234C117.327 222.685 116.718 221.117 107.749 221.157C103.484 221.177 96.689 222.672 92.6486 224.479Z"/>
</mask>
<path fill-rule="evenodd" clip-rule="evenodd" d="M139.175 0.904463C114.472 4.7722 85.7969 16.7792 65.7122 31.6655C29.082 58.8172 7.96379 96.0299 1.23949 145.279C-0.314658 156.659 -0.193821 162.054 1.93334 176.219C9.90814 229.351 35.7279 268.783 79.7877 295.122C91.2757 301.991 112.413 310.837 121.25 312.478L126.931 313.533L126.938 306.488C126.946 298.396 130.786 274.169 133.943 262.302C135.832 255.198 135.73 252.9 133.097 243.183C127.346 221.958 115.783 205.674 100.183 196.821C90.0284 191.06 93.4354 190.568 105.384 196.07C115.958 200.94 132.258 215.973 138.325 226.451L142.811 234.201L146.293 225.644C154.22 206.158 155.381 200.029 155.407 177.519C155.432 156.602 155.195 155.044 149.556 139.145C143.101 120.942 131.876 101.27 120.783 88.7256C110.595 77.2064 114.728 78.6727 126.394 90.7168C138.733 103.459 150.386 119.093 156.584 131.224L161.398 140.644L165.607 132.288C168.118 127.305 172.463 122.035 176.372 119.233C184.307 113.547 188.591 112.956 181.439 118.534C171.187 126.529 165.798 146.738 169.373 163.776C170.475 169.026 171.845 179.631 172.416 187.346L173.458 201.37L189.022 192.271C213.567 177.919 224.34 169.136 234.773 154.962C238.673 149.665 242.18 145.645 242.568 146.029C243.827 147.273 230.093 168.79 221.698 178.73C217.207 184.045 206.253 194.283 197.354 201.481C172.462 221.616 166.872 229.799 161.766 253.574C158.83 267.246 157.417 314.8 159.874 317.231C160.484 317.833 168.932 317.488 178.647 316.46C215.248 312.594 246.839 297.863 273.597 272.187C332.691 215.482 338.726 125.079 287.735 60.3983C266.592 33.5776 239.259 15.66 203.659 5.28414C192.447 2.01554 185.395 1.13379 166.928 0.689685C154.357 0.38608 141.869 0.482968 139.175 0.904463ZM121.885 43.687C117.037 50.4229 115.925 62.3184 119.505 69.1657C121.866 73.6826 122.59 74.1025 124.837 72.2599C128.342 69.3853 131.829 60.7923 131.829 55.0335C131.829 50.6344 127.713 38.6355 126.205 38.6355C125.829 38.6355 123.885 40.9077 121.885 43.687ZM82.8535 47.3206C82.8535 49.9739 88.1918 59.4923 91.2822 62.3475C95.3063 66.0666 102.563 69.3191 106.835 69.3191C108.83 69.3191 109.155 68.1983 108.337 64.1481C107.057 57.8241 101.748 51.8779 94.7415 48.9242C89.8603 46.8668 82.8535 45.9221 82.8535 47.3206ZM145.656 58.4458C141.203 62.8513 138.005 67.8527 136.792 72.3083C134.648 80.1859 135.887 88.6982 139.18 88.6982C142.394 88.6982 151.166 80.9481 153.926 75.6673C156.79 70.1879 157.209 51.5549 154.468 51.5549C153.453 51.5549 149.488 54.6556 145.656 58.4458ZM220.561 53.9208C210.981 60.5581 208.731 80.8722 218.126 75.8983C222.967 73.3354 226.514 65.805 226.514 58.0953C226.514 50.9461 225.69 50.368 220.561 53.9208ZM194.675 73.4694C191.427 76.6831 188.078 81.108 187.236 83.3027C185.226 88.527 185.262 101.159 187.288 102.398C189.959 104.03 197.141 98.2359 200.489 91.7455C203.814 85.2971 204.874 70.2525 202.12 68.5681C201.272 68.0514 197.923 70.2557 194.675 73.4694ZM77.1397 76.1276C70.6979 78.3756 70.6015 78.5032 73.1254 81.5101C79.3746 88.9598 95.7275 92.5352 104.816 88.4381C109.907 86.1433 109.961 85.331 105.301 81.0127C98.1664 74.4028 87.4262 72.5392 77.1397 76.1276ZM169.45 78.6566C157.578 84.5074 151.185 92.6337 150.162 103.169C149.252 112.525 150.092 112.932 160.569 108.226C168.772 104.541 173.717 99.6021 177.699 91.1205C180.726 84.6754 181.899 74.117 179.58 74.2155C178.905 74.2446 174.347 76.2423 169.45 78.6566ZM223.035 84.0779C215.895 86.0303 207.719 93.8998 209.11 97.4833C210.29 100.527 224.748 101.009 230.295 98.1907C239.205 93.6624 246.251 83.8534 240.595 83.8534C239.36 83.8534 236.238 83.5385 233.657 83.1557C231.076 82.7714 226.296 83.1864 223.035 84.0779ZM274.25 93.5349C266.153 98.4184 258.57 112.922 264.114 112.922C271.745 112.922 283.637 102.478 285.724 93.9467C286.437 91.0285 285.918 90.3147 283.091 90.3195C281.154 90.3228 277.176 91.7697 274.25 93.5349ZM244.083 99.5989C240.813 102.93 237.357 107.701 236.407 110.201C234.004 116.514 234.244 127.868 236.853 131.398C238.921 134.195 239.243 134.205 243.303 131.573C251.704 126.129 256.543 109.376 253.238 97.1765C251.916 92.2994 251.02 92.5368 244.083 99.5989ZM90.208 102.16L82.0519 105.892L88.5755 110.086C101.962 118.694 113.858 119.598 125.036 112.853C129.778 109.992 130.204 109.224 128.301 106.95C124.713 102.659 113.558 98.4604 105.709 98.4442C101.446 98.4361 94.939 99.9962 90.208 102.16ZM211.822 108.059C208.679 108.641 203.791 110.317 200.961 111.787C195.343 114.702 188.119 124.793 189.765 127.427C191.856 130.777 207.118 129.265 214.515 124.977C220.157 121.707 230.912 109.96 229.329 108.801C227.801 107.683 216.463 107.204 211.822 108.059ZM271.408 120.183C265.616 122.201 255.899 130.974 255.899 134.186C255.899 134.845 258.541 135.875 261.77 136.474C270.605 138.113 280.255 134.544 287.606 126.919L294.01 120.275L290.055 119.181C283.784 117.449 278.435 117.736 271.408 120.183ZM99.3337 129.139L92.1425 132.367L96.0687 136.529C106.161 147.226 123.325 150.492 138.767 144.655C143.031 143.042 146.521 141.354 146.521 140.905C146.521 139.1 138.721 133.517 131.013 129.804C120.857 124.913 109.292 124.671 99.3337 129.139ZM211.005 139.405C201.186 142.477 194.323 146.398 188.692 152.152C182.881 158.091 177.627 168.467 177.575 174.11C177.541 177.835 177.864 177.939 187.044 177.115C205.938 175.42 220.231 163.511 227.36 143.525L229.634 137.146L223.586 137.254C220.258 137.314 214.597 138.281 211.005 139.405ZM255.083 144.679C249.064 147.825 244.472 151.698 244.472 153.628C244.472 155.551 254.819 159.756 259.52 159.745C268.884 159.723 285.285 151.514 285.285 146.85C285.285 142.162 262.97 140.558 255.083 144.679ZM60.0147 153.699C60.0425 160.075 67.6043 173.704 73.638 178.257C76.8443 180.676 82.4324 183.048 86.0582 183.53C91.9989 184.318 92.6486 184.059 92.6486 180.91C92.6486 175.985 88.2506 166.156 83.9995 161.581C80.4048 157.713 65.8885 150.11 62.039 150.081C60.9175 150.072 60.0049 151.701 60.0147 153.699ZM94.2811 158.917C94.2811 164.063 104.579 180.923 111.089 186.436C118.715 192.891 129.648 196.898 139.644 196.898C146.709 196.898 146.849 196.796 145.787 192.457C143.762 184.206 138.134 174.388 132.926 170.032C125.638 163.934 112.918 158.511 102.852 157.215C95.37 156.249 94.2811 156.465 94.2811 158.917ZM246.921 169.344C239.338 171.163 231.412 175.741 231.412 178.301C231.412 179.571 234.724 182.533 238.771 184.88C244.447 188.169 248.307 189.146 255.64 189.146C265.908 189.146 282.61 183.326 281.541 180.121C280.666 177.493 264.175 169.803 257.532 168.924C254.389 168.509 249.614 168.697 246.921 169.344ZM37.6706 180.175C30.9104 181.634 30.0043 184.944 35.3345 188.699C46.1923 196.347 55.318 197.688 66.9366 193.34C72.8054 191.146 72.6063 189.878 65.5522 184.557C60.973 181.101 57.6476 180.046 50.4515 179.767C45.3777 179.57 39.6247 179.754 37.6706 180.175ZM219.712 194.992C217.204 196.005 217.235 196.598 220.103 202.55C224.159 210.961 233.108 218.674 242.47 221.831C251.268 224.796 268.959 225.259 268.959 222.524C268.959 215.57 251.657 198.571 241.522 195.567C234.585 193.512 224.07 193.234 219.712 194.992ZM68.0613 200.667C60.1094 202.841 53.3786 206.999 47.193 213.559L43.3664 217.616L47.193 219.77C49.5618 221.102 56.3611 221.924 65.0347 221.926C77.7927 221.929 79.6554 221.516 85.7724 217.322C89.4684 214.788 93.6624 210.949 95.0924 208.79C97.6212 204.973 97.5461 204.808 92.3123 202.646C83.7367 199.102 76.0655 198.477 68.0613 200.667ZM194.793 214.147C193.448 217.613 195.335 230.033 198.256 236.95C201.721 245.155 212.302 255.546 222.275 260.536C227.203 263.003 231.884 264.626 232.674 264.143C234.639 262.942 232.194 244.289 229.125 237.063C225.652 228.885 219.191 221.726 211.242 217.244C201.656 211.839 196.094 210.793 194.793 214.147ZM92.6486 224.479C83.1621 228.722 75.3962 236.149 70.4644 245.696C64.3801 257.472 64.8943 258.779 75.0991 257.466C92.4347 255.237 106.451 246.142 112.436 233.234C117.327 222.685 116.718 221.117 107.749 221.157C103.484 221.177 96.689 222.672 92.6486 224.479Z" stroke="black" stroke-opacity="0.2" stroke-width="2" mask="url(#path-1-inside-1_52_3)"/>
</svg>
