<svg width="381" height="334" viewBox="0 0 381 334" fill="none" xmlns="http://www.w3.org/2000/svg">
<path fill-rule="evenodd" clip-rule="evenodd" d="M170.999 2.83851C177.912 7.37924 180.669 10.8552 189.943 26.7216C193.395 32.6272 199.791 43.5118 204.155 50.9098C208.52 58.3078 213.398 66.6339 214.995 69.4118L217.899 74.4637L208.445 79.8192C196.701 86.4725 195.786 87.1308 197.093 87.9775C197.632 88.3265 201.681 88.8306 206.09 89.0968C210.499 89.363 219.451 90.0306 225.983 90.5792C258.4 93.3048 268.527 93.8506 269.649 92.9345C270.252 92.4425 271.809 89.7941 273.11 87.0494C274.411 84.3048 280.088 72.502 285.728 60.821C291.366 49.1399 297.106 37.2416 298.482 34.3801C299.858 31.5179 300.708 28.9205 300.372 28.6076C300.035 28.2939 294.965 30.7505 289.104 34.0672C283.244 37.3832 278.333 39.9806 278.193 39.8397C278.053 39.6981 273.682 32.2556 268.478 23.3001C261.686 11.6092 258.096 6.16938 255.747 4.00875L252.475 1H210.338H168.2L170.999 2.83851ZM140.329 4.46041C134.456 6.33008 129.239 9.14697 126.099 12.143C124.565 13.607 121.18 18.4684 118.576 22.9461C115.972 27.4239 109.302 38.8146 103.754 48.2593L93.6661 65.4303L98.8233 68.3584C101.66 69.969 108.839 74.0672 114.777 77.466C120.715 80.8649 129.895 86.076 135.176 89.0465L144.78 94.4481H151.043H157.307L172.931 67.5747C181.523 52.7943 188.554 40.341 188.554 39.9006C188.554 38.4876 176.294 18.3459 173.423 15.042C165.083 5.44586 151.189 1.00283 140.329 4.46041ZM64.7527 153.929C54.6168 154.912 38.4923 156.054 29.1237 156.454C12.1413 157.177 1.05242 158.395 1.05242 159.539C1.05242 160.106 5.33077 162.991 10.6665 166.022C15.9547 169.025 20.5685 171.765 20.919 172.11C21.2904 172.475 17.2647 179.986 11.3049 190.051L1.05242 207.365V212.32C1.05242 217.951 -0.901046 214.069 19.0411 248.071C38.8206 281.795 41.7652 286.663 42.1646 286.3C42.3784 286.105 42.6699 283.981 42.811 281.58C43.1982 275.005 45.7729 268.751 53.4622 255.713C57.2965 249.212 60.434 243.668 60.434 243.396C60.434 242.711 80.5856 208.293 81.6595 207.144C82.3649 206.39 84.5055 207.355 93.0457 212.276C98.8298 215.61 103.738 218.338 103.952 218.338C104.165 218.338 104.34 218.054 104.34 217.708C104.34 216.273 73.9968 154.904 72.8861 154.092C72.2203 153.606 71.3321 153.252 70.9132 153.306C70.4936 153.361 67.7218 153.641 64.7527 153.929ZM364.034 185.99L363.82 204.657L361.759 207.581C360.473 209.406 358.324 211.177 356.04 212.297C352.591 213.987 351.731 214.09 341.087 214.09H329.794L329.286 217.425C328.639 221.665 326.385 227.616 324.563 229.895C323.787 230.865 323.153 231.847 323.153 232.077C323.153 232.307 329.492 232.496 337.241 232.496C350.454 232.496 351.674 232.383 356.855 230.678C370.296 226.257 377.33 218.176 379.509 204.655C380.858 196.282 379.753 192.53 372.071 179.393C368.421 173.151 365.167 167.883 364.841 167.684C364.515 167.486 364.151 175.723 364.034 185.99ZM268.09 228.846C263.339 235.311 258.481 241.698 257.293 243.037C256.105 244.376 251.679 250.436 247.456 256.506C243.233 262.574 238.779 268.88 237.559 270.519C236.338 272.157 235.34 273.775 235.34 274.115C235.34 274.455 241.352 283.308 248.701 293.79C256.049 304.272 265.199 317.376 269.035 322.912C272.87 328.447 276.412 332.986 276.907 333C277.592 333.018 277.807 330.158 277.807 320.989V308.954H297.469C319.084 308.954 322.344 308.5 326.528 304.907C327.82 303.797 332.983 295.822 338.344 286.654C370.121 232.311 369.214 233.912 368.229 233.912C368.081 233.912 366.532 234.697 364.787 235.657C358.805 238.945 353.164 239.719 332.51 240.086C322.019 240.271 305.265 240.567 295.278 240.742L277.121 241.06L276.924 229.075L276.727 217.089L268.09 228.846ZM59.8963 259.221C52.2005 272.421 50.9977 275.522 50.5241 283.378C49.9073 293.629 52.4531 300.953 58.7425 307.017C63.1123 311.23 67.7038 314.247 72.1304 315.812C74.0104 316.477 75.5493 317.277 75.5493 317.589C75.5493 317.902 89.315 318.157 106.14 318.157H136.73V283.114V248.071H101.563H66.3974L59.8963 259.221Z" stroke="#2D2D48" stroke-opacity="0.2" stroke-width="2"/>
</svg>
